ISO-10303-21;
HEADER;
/* Generated by software containing ST-Developer
 * from STEP Tools, Inc. (www.steptools.com) 
 */
/* OPTION: using custom renumber hook */

FILE_DESCRIPTION(
/* description */ ('STEP AP242 Edition 2',
'CAx-IF Rec.Pracs.---Representation and Presentation of Product Manufa
cturing Information (PMI)---4.0---2014-10-13',
'CAx-IF Rec.Pracs.---3D Tessellated Geometry---0.4---2014-09-14','2;1',
'CAx-IF Rec.Pracs.---User Defined Attributes---1.5---2016-08-15'),
/* implementation_level */ '2;1');

FILE_NAME(
/* name */ 'Kinetix_Enclosure - Part 191',
/* time_stamp */ '2026-09-08T01:17:15Z',
/* author */ (''),
/* organization */ (''),
/* preprocessor_version */ 'ST-DEVELOPER v20',
/* originating_system */ 'ONSHAPE BY PTC INC, 1.220',
/* authorisation */ '  ');

FILE_SCHEMA (('AP242_MANAGED_MODEL_BASED_3D_ENGINEERING_MIM_LF { 1 0 10303 442 3 1 4 }'));
ENDSEC;

DATA;
#10=SHAPE_REPRESENTATION_RELATIONSHIP('','',#805,#11);
#11=ADVANCED_BREP_SHAPE_REPRESENTATION('',(#803),#1349);
#12=PLANE('',#815);
#13=PLANE('',#824);
#14=PLANE('',#825);
#15=PLANE('',#826);
#16=PLANE('',#827);
#17=PLANE('',#828);
#18=PLANE('',#829);
#19=PLANE('',#830);
#20=PLANE('',#831);
#21=PLANE('',#832);
#22=PLANE('',#843);
#23=PLANE('',#844);
#24=PLANE('',#845);
#25=PLANE('',#846);
#26=PLANE('',#847);
#27=PLANE('',#859);
#28=PLANE('',#860);
#29=PLANE('',#866);
#30=PLANE('',#867);
#31=PLANE('',#871);
#32=PLANE('',#872);
#33=PLANE('',#878);
#34=PLANE('',#879);
#35=PLANE('',#880);
#36=PLANE('',#881);
#37=PLANE('',#882);
#38=PLANE('',#883);
#39=PLANE('',#884);
#40=PLANE('',#885);
#41=PLANE('',#886);
#42=PLANE('',#887);
#43=LINE('',#1126,#113);
#44=LINE('',#1131,#114);
#45=LINE('',#1137,#115);
#46=LINE('',#1142,#116);
#47=LINE('',#1146,#117);
#48=LINE('',#1151,#118);
#49=LINE('',#1155,#119);
#50=LINE('',#1159,#120);
#51=LINE('',#1162,#121);
#52=LINE('',#1167,#122);
#53=LINE('',#1171,#123);
#54=LINE('',#1175,#124);
#55=LINE('',#1179,#125);
#56=LINE('',#1181,#126);
#57=LINE('',#1183,#127);
#58=LINE('',#1185,#128);
#59=LINE('',#1187,#129);
#60=LINE('',#1189,#130);
#61=LINE('',#1191,#131);
#62=LINE('',#1193,#132);
#63=LINE('',#1195,#133);
#64=LINE('',#1197,#134);
#65=LINE('',#1200,#135);
#66=LINE('',#1202,#136);
#67=LINE('',#1204,#137);
#68=LINE('',#1206,#138);
#69=LINE('',#1208,#139);
#70=LINE('',#1210,#140);
#71=LINE('',#1212,#141);
#72=LINE('',#1214,#142);
#73=LINE('',#1216,#143);
#74=LINE('',#1218,#144);
#75=LINE('',#1220,#145);
#76=LINE('',#1222,#146);
#77=LINE('',#1224,#147);
#78=LINE('',#1226,#148);
#79=LINE('',#1227,#149);
#80=LINE('',#1229,#150);
#81=LINE('',#1231,#151);
#82=LINE('',#1233,#152);
#83=LINE('',#1237,#153);
#84=LINE('',#1238,#154);
#85=LINE('',#1240,#155);
#86=LINE('',#1242,#156);
#87=LINE('',#1244,#157);
#88=LINE('',#1246,#158);
#89=LINE('',#1247,#159);
#90=LINE('',#1259,#160);
#91=LINE('',#1261,#161);
#92=LINE('',#1263,#162);
#93=LINE('',#1265,#163);
#94=LINE('',#1267,#164);
#95=LINE('',#1269,#165);
#96=LINE('',#1271,#166);
#97=LINE('',#1273,#167);
#98=LINE('',#1275,#168);
#99=LINE('',#1277,#169);
#100=LINE('',#1280,#170);
#101=LINE('',#1281,#171);
#102=LINE('',#1326,#172);
#103=LINE('',#1328,#173);
#104=LINE('',#1330,#174);
#105=LINE('',#1332,#175);
#106=LINE('',#1334,#176);
#107=LINE('',#1336,#177);
#108=LINE('',#1338,#178);
#109=LINE('',#1340,#179);
#110=LINE('',#1342,#180);
#111=LINE('',#1344,#181);
#112=LINE('',#1346,#182);
#113=VECTOR('',#894,1.);
#114=VECTOR('',#897,1.);
#115=VECTOR('',#904,1.);
#116=VECTOR('',#907,1.);
#117=VECTOR('',#912,1.);
#118=VECTOR('',#915,1.);
#119=VECTOR('',#918,1.);
#120=VECTOR('',#921,1.);
#121=VECTOR('',#924,1.);
#122=VECTOR('',#927,1.);
#123=VECTOR('',#930,1.);
#124=VECTOR('',#933,1.);
#125=VECTOR('',#938,1.);
#126=VECTOR('',#939,1.);
#127=VECTOR('',#940,1.);
#128=VECTOR('',#943,1.);
#129=VECTOR('',#944,1.);
#130=VECTOR('',#945,1.);
#131=VECTOR('',#948,1.);
#132=VECTOR('',#949,1.);
#133=VECTOR('',#950,1.);
#134=VECTOR('',#953,1.);
#135=VECTOR('',#954,1.);
#136=VECTOR('',#955,1.);
#137=VECTOR('',#956,1.);
#138=VECTOR('',#959,1.);
#139=VECTOR('',#960,1.);
#140=VECTOR('',#961,1.);
#141=VECTOR('',#962,1.);
#142=VECTOR('',#963,1.);
#143=VECTOR('',#966,1.);
#144=VECTOR('',#967,1.);
#145=VECTOR('',#968,1.);
#146=VECTOR('',#971,1.);
#147=VECTOR('',#972,1.);
#148=VECTOR('',#973,1.);
#149=VECTOR('',#974,1.);
#150=VECTOR('',#977,1.);
#151=VECTOR('',#978,1.);
#152=VECTOR('',#979,1.);
#153=VECTOR('',#984,1.);
#154=VECTOR('',#985,1.);
#155=VECTOR('',#986,1.);
#156=VECTOR('',#987,1.);
#157=VECTOR('',#988,1.);
#158=VECTOR('',#989,1.);
#159=VECTOR('',#990,1.);
#160=VECTOR('',#1011,1.);
#161=VECTOR('',#1012,1.);
#162=VECTOR('',#1013,1.);
#163=VECTOR('',#1016,1.);
#164=VECTOR('',#1017,1.);
#165=VECTOR('',#1018,1.);
#166=VECTOR('',#1021,1.);
#167=VECTOR('',#1022,1.);
#168=VECTOR('',#1023,1.);
#169=VECTOR('',#1026,1.);
#170=VECTOR('',#1027,1.);
#171=VECTOR('',#1028,1.);
#172=VECTOR('',#1097,1.);
#173=VECTOR('',#1100,1.);
#174=VECTOR('',#1103,1.);
#175=VECTOR('',#1104,1.);
#176=VECTOR('',#1107,1.);
#177=VECTOR('',#1108,1.);
#178=VECTOR('',#1111,1.);
#179=VECTOR('',#1112,1.);
#180=VECTOR('',#1115,1.);
#181=VECTOR('',#1116,1.);
#182=VECTOR('',#1119,1.);
#183=ORIENTED_EDGE('',*,*,#391,.F.);
#184=ORIENTED_EDGE('',*,*,#392,.F.);
#185=ORIENTED_EDGE('',*,*,#393,.T.);
#186=ORIENTED_EDGE('',*,*,#394,.T.);
#187=ORIENTED_EDGE('',*,*,#395,.T.);
#188=ORIENTED_EDGE('',*,*,#396,.F.);
#189=ORIENTED_EDGE('',*,*,#397,.F.);
#190=ORIENTED_EDGE('',*,*,#398,.T.);
#191=ORIENTED_EDGE('',*,*,#399,.T.);
#192=ORIENTED_EDGE('',*,*,#400,.T.);
#193=ORIENTED_EDGE('',*,*,#401,.T.);
#194=ORIENTED_EDGE('',*,*,#402,.T.);
#195=ORIENTED_EDGE('',*,*,#403,.T.);
#196=ORIENTED_EDGE('',*,*,#404,.T.);
#197=ORIENTED_EDGE('',*,*,#405,.T.);
#198=ORIENTED_EDGE('',*,*,#406,.T.);
#199=ORIENTED_EDGE('',*,*,#407,.T.);
#200=ORIENTED_EDGE('',*,*,#408,.T.);
#201=ORIENTED_EDGE('',*,*,#409,.T.);
#202=ORIENTED_EDGE('',*,*,#410,.T.);
#203=ORIENTED_EDGE('',*,*,#411,.T.);
#204=ORIENTED_EDGE('',*,*,#412,.T.);
#205=ORIENTED_EDGE('',*,*,#413,.T.);
#206=ORIENTED_EDGE('',*,*,#414,.T.);
#207=ORIENTED_EDGE('',*,*,#415,.T.);
#208=ORIENTED_EDGE('',*,*,#416,.T.);
#209=ORIENTED_EDGE('',*,*,#417,.T.);
#210=ORIENTED_EDGE('',*,*,#418,.T.);
#211=ORIENTED_EDGE('',*,*,#419,.T.);
#212=ORIENTED_EDGE('',*,*,#407,.F.);
#213=ORIENTED_EDGE('',*,*,#420,.T.);
#214=ORIENTED_EDGE('',*,*,#421,.T.);
#215=ORIENTED_EDGE('',*,*,#422,.T.);
#216=ORIENTED_EDGE('',*,*,#401,.F.);
#217=ORIENTED_EDGE('',*,*,#403,.F.);
#218=ORIENTED_EDGE('',*,*,#423,.T.);
#219=ORIENTED_EDGE('',*,*,#424,.T.);
#220=ORIENTED_EDGE('',*,*,#425,.T.);
#221=ORIENTED_EDGE('',*,*,#426,.T.);
#222=ORIENTED_EDGE('',*,*,#427,.T.);
#223=ORIENTED_EDGE('',*,*,#428,.F.);
#224=ORIENTED_EDGE('',*,*,#429,.F.);
#225=ORIENTED_EDGE('',*,*,#428,.T.);
#226=ORIENTED_EDGE('',*,*,#430,.T.);
#227=ORIENTED_EDGE('',*,*,#431,.T.);
#228=ORIENTED_EDGE('',*,*,#432,.T.);
#229=ORIENTED_EDGE('',*,*,#433,.F.);
#230=ORIENTED_EDGE('',*,*,#434,.F.);
#231=ORIENTED_EDGE('',*,*,#435,.T.);
#232=ORIENTED_EDGE('',*,*,#436,.F.);
#233=ORIENTED_EDGE('',*,*,#437,.F.);
#234=ORIENTED_EDGE('',*,*,#433,.T.);
#235=ORIENTED_EDGE('',*,*,#438,.T.);
#236=ORIENTED_EDGE('',*,*,#439,.F.);
#237=ORIENTED_EDGE('',*,*,#440,.T.);
#238=ORIENTED_EDGE('',*,*,#426,.F.);
#239=ORIENTED_EDGE('',*,*,#441,.F.);
#240=ORIENTED_EDGE('',*,*,#436,.T.);
#241=ORIENTED_EDGE('',*,*,#442,.T.);
#242=ORIENTED_EDGE('',*,*,#443,.T.);
#243=ORIENTED_EDGE('',*,*,#444,.T.);
#244=ORIENTED_EDGE('',*,*,#405,.F.);
#245=ORIENTED_EDGE('',*,*,#445,.F.);
#246=ORIENTED_EDGE('',*,*,#432,.F.);
#247=ORIENTED_EDGE('',*,*,#446,.T.);
#248=ORIENTED_EDGE('',*,*,#400,.F.);
#249=ORIENTED_EDGE('',*,*,#447,.T.);
#250=ORIENTED_EDGE('',*,*,#448,.T.);
#251=ORIENTED_EDGE('',*,*,#449,.T.);
#252=ORIENTED_EDGE('',*,*,#450,.T.);
#253=ORIENTED_EDGE('',*,*,#451,.T.);
#254=ORIENTED_EDGE('',*,*,#395,.F.);
#255=ORIENTED_EDGE('',*,*,#452,.T.);
#256=ORIENTED_EDGE('',*,*,#438,.F.);
#257=ORIENTED_EDGE('',*,*,#435,.F.);
#258=ORIENTED_EDGE('',*,*,#453,.F.);
#259=ORIENTED_EDGE('',*,*,#402,.F.);
#260=ORIENTED_EDGE('',*,*,#422,.F.);
#261=ORIENTED_EDGE('',*,*,#454,.F.);
#262=ORIENTED_EDGE('',*,*,#423,.F.);
#263=ORIENTED_EDGE('',*,*,#408,.F.);
#264=ORIENTED_EDGE('',*,*,#419,.F.);
#265=ORIENTED_EDGE('',*,*,#455,.F.);
#266=ORIENTED_EDGE('',*,*,#420,.F.);
#267=ORIENTED_EDGE('',*,*,#406,.F.);
#268=ORIENTED_EDGE('',*,*,#444,.F.);
#269=ORIENTED_EDGE('',*,*,#456,.F.);
#270=ORIENTED_EDGE('',*,*,#417,.F.);
#271=ORIENTED_EDGE('',*,*,#404,.F.);
#272=ORIENTED_EDGE('',*,*,#425,.F.);
#273=ORIENTED_EDGE('',*,*,#457,.F.);
#274=ORIENTED_EDGE('',*,*,#442,.F.);
#275=ORIENTED_EDGE('',*,*,#413,.F.);
#276=ORIENTED_EDGE('',*,*,#458,.T.);
#277=ORIENTED_EDGE('',*,*,#459,.T.);
#278=ORIENTED_EDGE('',*,*,#460,.T.);
#279=ORIENTED_EDGE('',*,*,#411,.F.);
#280=ORIENTED_EDGE('',*,*,#461,.T.);
#281=ORIENTED_EDGE('',*,*,#462,.T.);
#282=ORIENTED_EDGE('',*,*,#463,.T.);
#283=ORIENTED_EDGE('',*,*,#409,.F.);
#284=ORIENTED_EDGE('',*,*,#464,.T.);
#285=ORIENTED_EDGE('',*,*,#465,.T.);
#286=ORIENTED_EDGE('',*,*,#466,.T.);
#287=ORIENTED_EDGE('',*,*,#467,.T.);
#288=ORIENTED_EDGE('',*,*,#468,.T.);
#289=ORIENTED_EDGE('',*,*,#415,.F.);
#290=ORIENTED_EDGE('',*,*,#469,.T.);
#291=ORIENTED_EDGE('',*,*,#465,.F.);
#292=ORIENTED_EDGE('',*,*,#470,.T.);
#293=ORIENTED_EDGE('',*,*,#467,.F.);
#294=ORIENTED_EDGE('',*,*,#471,.T.);
#295=ORIENTED_EDGE('',*,*,#459,.F.);
#296=ORIENTED_EDGE('',*,*,#472,.T.);
#297=ORIENTED_EDGE('',*,*,#462,.F.);
#298=ORIENTED_EDGE('',*,*,#473,.T.);
#299=ORIENTED_EDGE('',*,*,#441,.T.);
#300=ORIENTED_EDGE('',*,*,#429,.T.);
#301=ORIENTED_EDGE('',*,*,#434,.T.);
#302=ORIENTED_EDGE('',*,*,#437,.T.);
#303=ORIENTED_EDGE('',*,*,#470,.F.);
#304=ORIENTED_EDGE('',*,*,#464,.F.);
#305=ORIENTED_EDGE('',*,*,#416,.F.);
#306=ORIENTED_EDGE('',*,*,#468,.F.);
#307=ORIENTED_EDGE('',*,*,#473,.F.);
#308=ORIENTED_EDGE('',*,*,#461,.F.);
#309=ORIENTED_EDGE('',*,*,#410,.F.);
#310=ORIENTED_EDGE('',*,*,#466,.F.);
#311=ORIENTED_EDGE('',*,*,#472,.F.);
#312=ORIENTED_EDGE('',*,*,#458,.F.);
#313=ORIENTED_EDGE('',*,*,#412,.F.);
#314=ORIENTED_EDGE('',*,*,#463,.F.);
#315=ORIENTED_EDGE('',*,*,#471,.F.);
#316=ORIENTED_EDGE('',*,*,#469,.F.);
#317=ORIENTED_EDGE('',*,*,#414,.F.);
#318=ORIENTED_EDGE('',*,*,#460,.F.);
#319=ORIENTED_EDGE('',*,*,#474,.T.);
#320=ORIENTED_EDGE('',*,*,#475,.F.);
#321=ORIENTED_EDGE('',*,*,#474,.F.);
#322=ORIENTED_EDGE('',*,*,#391,.T.);
#323=ORIENTED_EDGE('',*,*,#475,.T.);
#324=ORIENTED_EDGE('',*,*,#476,.T.);
#325=ORIENTED_EDGE('',*,*,#477,.F.);
#326=ORIENTED_EDGE('',*,*,#478,.F.);
#327=ORIENTED_EDGE('',*,*,#453,.T.);
#328=ORIENTED_EDGE('',*,*,#476,.F.);
#329=ORIENTED_EDGE('',*,*,#478,.T.);
#330=ORIENTED_EDGE('',*,*,#477,.T.);
#331=ORIENTED_EDGE('',*,*,#479,.T.);
#332=ORIENTED_EDGE('',*,*,#480,.F.);
#333=ORIENTED_EDGE('',*,*,#479,.F.);
#334=ORIENTED_EDGE('',*,*,#396,.T.);
#335=ORIENTED_EDGE('',*,*,#480,.T.);
#336=ORIENTED_EDGE('',*,*,#481,.T.);
#337=ORIENTED_EDGE('',*,*,#482,.F.);
#338=ORIENTED_EDGE('',*,*,#483,.F.);
#339=ORIENTED_EDGE('',*,*,#445,.T.);
#340=ORIENTED_EDGE('',*,*,#481,.F.);
#341=ORIENTED_EDGE('',*,*,#483,.T.);
#342=ORIENTED_EDGE('',*,*,#482,.T.);
#343=ORIENTED_EDGE('',*,*,#446,.F.);
#344=ORIENTED_EDGE('',*,*,#431,.F.);
#345=ORIENTED_EDGE('',*,*,#484,.T.);
#346=ORIENTED_EDGE('',*,*,#397,.T.);
#347=ORIENTED_EDGE('',*,*,#452,.F.);
#348=ORIENTED_EDGE('',*,*,#394,.F.);
#349=ORIENTED_EDGE('',*,*,#485,.T.);
#350=ORIENTED_EDGE('',*,*,#439,.T.);
#351=ORIENTED_EDGE('',*,*,#451,.F.);
#352=ORIENTED_EDGE('',*,*,#486,.F.);
#353=ORIENTED_EDGE('',*,*,#487,.T.);
#354=ORIENTED_EDGE('',*,*,#392,.T.);
#355=ORIENTED_EDGE('',*,*,#450,.F.);
#356=ORIENTED_EDGE('',*,*,#488,.F.);
#357=ORIENTED_EDGE('',*,*,#489,.T.);
#358=ORIENTED_EDGE('',*,*,#486,.T.);
#359=ORIENTED_EDGE('',*,*,#449,.F.);
#360=ORIENTED_EDGE('',*,*,#490,.F.);
#361=ORIENTED_EDGE('',*,*,#491,.T.);
#362=ORIENTED_EDGE('',*,*,#488,.T.);
#363=ORIENTED_EDGE('',*,*,#448,.F.);
#364=ORIENTED_EDGE('',*,*,#492,.F.);
#365=ORIENTED_EDGE('',*,*,#493,.T.);
#366=ORIENTED_EDGE('',*,*,#490,.T.);
#367=ORIENTED_EDGE('',*,*,#447,.F.);
#368=ORIENTED_EDGE('',*,*,#399,.F.);
#369=ORIENTED_EDGE('',*,*,#494,.T.);
#370=ORIENTED_EDGE('',*,*,#492,.T.);
#371=ORIENTED_EDGE('',*,*,#484,.F.);
#372=ORIENTED_EDGE('',*,*,#430,.F.);
#373=ORIENTED_EDGE('',*,*,#427,.F.);
#374=ORIENTED_EDGE('',*,*,#440,.F.);
#375=ORIENTED_EDGE('',*,*,#485,.F.);
#376=ORIENTED_EDGE('',*,*,#393,.F.);
#377=ORIENTED_EDGE('',*,*,#487,.F.);
#378=ORIENTED_EDGE('',*,*,#489,.F.);
#379=ORIENTED_EDGE('',*,*,#491,.F.);
#380=ORIENTED_EDGE('',*,*,#493,.F.);
#381=ORIENTED_EDGE('',*,*,#494,.F.);
#382=ORIENTED_EDGE('',*,*,#398,.F.);
#383=ORIENTED_EDGE('',*,*,#424,.F.);
#384=ORIENTED_EDGE('',*,*,#454,.T.);
#385=ORIENTED_EDGE('',*,*,#421,.F.);
#386=ORIENTED_EDGE('',*,*,#455,.T.);
#387=ORIENTED_EDGE('',*,*,#418,.F.);
#388=ORIENTED_EDGE('',*,*,#456,.T.);
#389=ORIENTED_EDGE('',*,*,#443,.F.);
#390=ORIENTED_EDGE('',*,*,#457,.T.);
#391=EDGE_CURVE('',#495,#495,#569,.T.);
#392=EDGE_CURVE('',#496,#497,#43,.T.);
#393=EDGE_CURVE('',#496,#498,#570,.T.);
#394=EDGE_CURVE('',#498,#499,#44,.T.);
#395=EDGE_CURVE('',#499,#497,#571,.T.);
#396=EDGE_CURVE('',#500,#500,#572,.T.);
#397=EDGE_CURVE('',#501,#502,#45,.T.);
#398=EDGE_CURVE('',#501,#503,#573,.T.);
#399=EDGE_CURVE('',#503,#504,#46,.T.);
#400=EDGE_CURVE('',#504,#502,#574,.T.);
#401=EDGE_CURVE('',#505,#506,#47,.T.);
#402=EDGE_CURVE('',#506,#507,#575,.T.);
#403=EDGE_CURVE('',#507,#508,#48,.T.);
#404=EDGE_CURVE('',#508,#509,#576,.T.);
#405=EDGE_CURVE('',#509,#510,#49,.T.);
#406=EDGE_CURVE('',#510,#511,#577,.T.);
#407=EDGE_CURVE('',#511,#512,#50,.T.);
#408=EDGE_CURVE('',#512,#505,#578,.T.);
#409=EDGE_CURVE('',#513,#514,#51,.T.);
#410=EDGE_CURVE('',#514,#515,#579,.F.);
#411=EDGE_CURVE('',#515,#516,#52,.T.);
#412=EDGE_CURVE('',#516,#517,#580,.F.);
#413=EDGE_CURVE('',#517,#518,#53,.T.);
#414=EDGE_CURVE('',#518,#519,#581,.F.);
#415=EDGE_CURVE('',#519,#520,#54,.T.);
#416=EDGE_CURVE('',#520,#513,#582,.F.);
#417=EDGE_CURVE('',#511,#521,#55,.T.);
#418=EDGE_CURVE('',#521,#522,#56,.T.);
#419=EDGE_CURVE('',#522,#512,#57,.F.);
#420=EDGE_CURVE('',#505,#523,#58,.T.);
#421=EDGE_CURVE('',#523,#524,#59,.T.);
#422=EDGE_CURVE('',#524,#506,#60,.F.);
#423=EDGE_CURVE('',#507,#525,#61,.T.);
#424=EDGE_CURVE('',#525,#526,#62,.T.);
#425=EDGE_CURVE('',#526,#508,#63,.F.);
#426=EDGE_CURVE('',#527,#528,#64,.T.);
#427=EDGE_CURVE('',#528,#529,#65,.T.);
#428=EDGE_CURVE('',#530,#529,#66,.T.);
#429=EDGE_CURVE('',#527,#530,#67,.T.);
#430=EDGE_CURVE('',#529,#531,#68,.T.);
#431=EDGE_CURVE('',#531,#532,#69,.T.);
#432=EDGE_CURVE('',#532,#533,#70,.T.);
#433=EDGE_CURVE('',#534,#533,#71,.T.);
#434=EDGE_CURVE('',#530,#534,#72,.T.);
#435=EDGE_CURVE('',#533,#535,#73,.T.);
#436=EDGE_CURVE('',#536,#535,#74,.T.);
#437=EDGE_CURVE('',#534,#536,#75,.T.);
#438=EDGE_CURVE('',#535,#537,#76,.T.);
#439=EDGE_CURVE('',#538,#537,#77,.T.);
#440=EDGE_CURVE('',#538,#528,#78,.T.);
#441=EDGE_CURVE('',#536,#527,#79,.T.);
#442=EDGE_CURVE('',#509,#539,#80,.T.);
#443=EDGE_CURVE('',#539,#540,#81,.T.);
#444=EDGE_CURVE('',#540,#510,#82,.F.);
#445=EDGE_CURVE('',#541,#541,#583,.T.);
#446=EDGE_CURVE('',#532,#502,#83,.T.);
#447=EDGE_CURVE('',#504,#542,#84,.T.);
#448=EDGE_CURVE('',#542,#543,#85,.T.);
#449=EDGE_CURVE('',#543,#544,#86,.T.);
#450=EDGE_CURVE('',#544,#545,#87,.T.);
#451=EDGE_CURVE('',#545,#497,#88,.T.);
#452=EDGE_CURVE('',#499,#537,#89,.T.);
#453=EDGE_CURVE('',#546,#546,#584,.T.);
#454=EDGE_CURVE('',#525,#524,#585,.F.);
#455=EDGE_CURVE('',#523,#522,#586,.F.);
#456=EDGE_CURVE('',#521,#540,#587,.F.);
#457=EDGE_CURVE('',#539,#526,#588,.F.);
#458=EDGE_CURVE('',#517,#547,#90,.F.);
#459=EDGE_CURVE('',#547,#548,#91,.T.);
#460=EDGE_CURVE('',#548,#518,#92,.T.);
#461=EDGE_CURVE('',#515,#549,#93,.F.);
#462=EDGE_CURVE('',#549,#550,#94,.T.);
#463=EDGE_CURVE('',#550,#516,#95,.T.);
#464=EDGE_CURVE('',#513,#551,#96,.F.);
#465=EDGE_CURVE('',#551,#552,#97,.T.);
#466=EDGE_CURVE('',#552,#514,#98,.T.);
#467=EDGE_CURVE('',#553,#554,#99,.T.);
#468=EDGE_CURVE('',#554,#520,#100,.T.);
#469=EDGE_CURVE('',#519,#553,#101,.F.);
#470=EDGE_CURVE('',#551,#554,#589,.T.);
#471=EDGE_CURVE('',#553,#548,#590,.T.);
#472=EDGE_CURVE('',#547,#550,#591,.T.);
#473=EDGE_CURVE('',#549,#552,#592,.T.);
#474=EDGE_CURVE('',#555,#555,#593,.T.);
#475=EDGE_CURVE('',#556,#556,#594,.T.);
#476=EDGE_CURVE('',#557,#557,#595,.T.);
#477=EDGE_CURVE('',#558,#558,#596,.T.);
#478=EDGE_CURVE('',#559,#559,#597,.T.);
#479=EDGE_CURVE('',#560,#560,#598,.T.);
#480=EDGE_CURVE('',#561,#561,#599,.T.);
#481=EDGE_CURVE('',#562,#562,#600,.T.);
#482=EDGE_CURVE('',#563,#563,#601,.T.);
#483=EDGE_CURVE('',#564,#564,#602,.T.);
#484=EDGE_CURVE('',#531,#501,#102,.T.);
#485=EDGE_CURVE('',#498,#538,#103,.T.);
#486=EDGE_CURVE('',#565,#545,#104,.T.);
#487=EDGE_CURVE('',#565,#496,#105,.T.);
#488=EDGE_CURVE('',#566,#544,#106,.T.);
#489=EDGE_CURVE('',#566,#565,#107,.T.);
#490=EDGE_CURVE('',#567,#543,#108,.T.);
#491=EDGE_CURVE('',#567,#566,#109,.T.);
#492=EDGE_CURVE('',#568,#542,#110,.T.);
#493=EDGE_CURVE('',#568,#567,#111,.T.);
#494=EDGE_CURVE('',#503,#568,#112,.T.);
#495=VERTEX_POINT('',#1125);
#496=VERTEX_POINT('',#1127);
#497=VERTEX_POINT('',#1128);
#498=VERTEX_POINT('',#1130);
#499=VERTEX_POINT('',#1132);
#500=VERTEX_POINT('',#1136);
#501=VERTEX_POINT('',#1138);
#502=VERTEX_POINT('',#1139);
#503=VERTEX_POINT('',#1141);
#504=VERTEX_POINT('',#1143);
#505=VERTEX_POINT('',#1147);
#506=VERTEX_POINT('',#1148);
#507=VERTEX_POINT('',#1150);
#508=VERTEX_POINT('',#1152);
#509=VERTEX_POINT('',#1154);
#510=VERTEX_POINT('',#1156);
#511=VERTEX_POINT('',#1158);
#512=VERTEX_POINT('',#1160);
#513=VERTEX_POINT('',#1163);
#514=VERTEX_POINT('',#1164);
#515=VERTEX_POINT('',#1166);
#516=VERTEX_POINT('',#1168);
#517=VERTEX_POINT('',#1170);
#518=VERTEX_POINT('',#1172);
#519=VERTEX_POINT('',#1174);
#520=VERTEX_POINT('',#1176);
#521=VERTEX_POINT('',#1180);
#522=VERTEX_POINT('',#1182);
#523=VERTEX_POINT('',#1186);
#524=VERTEX_POINT('',#1188);
#525=VERTEX_POINT('',#1192);
#526=VERTEX_POINT('',#1194);
#527=VERTEX_POINT('',#1198);
#528=VERTEX_POINT('',#1199);
#529=VERTEX_POINT('',#1201);
#530=VERTEX_POINT('',#1203);
#531=VERTEX_POINT('',#1207);
#532=VERTEX_POINT('',#1209);
#533=VERTEX_POINT('',#1211);
#534=VERTEX_POINT('',#1213);
#535=VERTEX_POINT('',#1217);
#536=VERTEX_POINT('',#1219);
#537=VERTEX_POINT('',#1223);
#538=VERTEX_POINT('',#1225);
#539=VERTEX_POINT('',#1230);
#540=VERTEX_POINT('',#1232);
#541=VERTEX_POINT('',#1236);
#542=VERTEX_POINT('',#1239);
#543=VERTEX_POINT('',#1241);
#544=VERTEX_POINT('',#1243);
#545=VERTEX_POINT('',#1245);
#546=VERTEX_POINT('',#1249);
#547=VERTEX_POINT('',#1260);
#548=VERTEX_POINT('',#1262);
#549=VERTEX_POINT('',#1266);
#550=VERTEX_POINT('',#1268);
#551=VERTEX_POINT('',#1272);
#552=VERTEX_POINT('',#1274);
#553=VERTEX_POINT('',#1278);
#554=VERTEX_POINT('',#1279);
#555=VERTEX_POINT('',#1293);
#556=VERTEX_POINT('',#1295);
#557=VERTEX_POINT('',#1300);
#558=VERTEX_POINT('',#1302);
#559=VERTEX_POINT('',#1305);
#560=VERTEX_POINT('',#1310);
#561=VERTEX_POINT('',#1312);
#562=VERTEX_POINT('',#1317);
#563=VERTEX_POINT('',#1319);
#564=VERTEX_POINT('',#1322);
#565=VERTEX_POINT('',#1331);
#566=VERTEX_POINT('',#1335);
#567=VERTEX_POINT('',#1339);
#568=VERTEX_POINT('',#1343);
#569=CIRCLE('',#808,0.002);
#570=CIRCLE('',#809,0.002);
#571=CIRCLE('',#810,0.002);
#572=CIRCLE('',#812,0.002);
#573=CIRCLE('',#813,0.002);
#574=CIRCLE('',#814,0.002);
#575=CIRCLE('',#816,0.005);
#576=CIRCLE('',#817,0.005);
#577=CIRCLE('',#818,0.005);
#578=CIRCLE('',#819,0.005);
#579=CIRCLE('',#820,0.0005);
#580=CIRCLE('',#821,0.0005);
#581=CIRCLE('',#822,0.0005);
#582=CIRCLE('',#823,0.0005);
#583=CIRCLE('',#833,0.002);
#584=CIRCLE('',#834,0.002);
#585=CIRCLE('',#836,0.005);
#586=CIRCLE('',#838,0.005);
#587=CIRCLE('',#840,0.005);
#588=CIRCLE('',#842,0.005);
#589=CIRCLE('',#848,0.0005);
#590=CIRCLE('',#849,0.0005);
#591=CIRCLE('',#850,0.0005);
#592=CIRCLE('',#851,0.0005);
#593=CIRCLE('',#857,0.001);
#594=CIRCLE('',#858,0.001);
#595=CIRCLE('',#862,0.001);
#596=CIRCLE('',#863,0.001);
#597=CIRCLE('',#865,0.002);
#598=CIRCLE('',#869,0.001);
#599=CIRCLE('',#870,0.001);
#600=CIRCLE('',#874,0.001);
#601=CIRCLE('',#875,0.001);
#602=CIRCLE('',#877,0.002);
#603=EDGE_LOOP('',(#183));
#604=EDGE_LOOP('',(#184,#185,#186,#187));
#605=EDGE_LOOP('',(#188));
#606=EDGE_LOOP('',(#189,#190,#191,#192));
#607=EDGE_LOOP('',(#193,#194,#195,#196,#197,#198,#199,#200));
#608=EDGE_LOOP('',(#201,#202,#203,#204,#205,#206,#207,#208));
#609=EDGE_LOOP('',(#209,#210,#211,#212));
#610=EDGE_LOOP('',(#213,#214,#215,#216));
#611=EDGE_LOOP('',(#217,#218,#219,#220));
#612=EDGE_LOOP('',(#221,#222,#223,#224));
#613=EDGE_LOOP('',(#225,#226,#227,#228,#229,#230));
#614=EDGE_LOOP('',(#231,#232,#233,#234));
#615=EDGE_LOOP('',(#235,#236,#237,#238,#239,#240));
#616=EDGE_LOOP('',(#241,#242,#243,#244));
#617=EDGE_LOOP('',(#245));
#618=EDGE_LOOP('',(#246,#247,#248,#249,#250,#251,#252,#253,#254,#255,#256,
#257));
#619=EDGE_LOOP('',(#258));
#620=EDGE_LOOP('',(#259,#260,#261,#262));
#621=EDGE_LOOP('',(#263,#264,#265,#266));
#622=EDGE_LOOP('',(#267,#268,#269,#270));
#623=EDGE_LOOP('',(#271,#272,#273,#274));
#624=EDGE_LOOP('',(#275,#276,#277,#278));
#625=EDGE_LOOP('',(#279,#280,#281,#282));
#626=EDGE_LOOP('',(#283,#284,#285,#286));
#627=EDGE_LOOP('',(#287,#288,#289,#290));
#628=EDGE_LOOP('',(#291,#292,#293,#294,#295,#296,#297,#298));
#629=EDGE_LOOP('',(#299,#300,#301,#302));
#630=EDGE_LOOP('',(#303,#304,#305,#306));
#631=EDGE_LOOP('',(#307,#308,#309,#310));
#632=EDGE_LOOP('',(#311,#312,#313,#314));
#633=EDGE_LOOP('',(#315,#316,#317,#318));
#634=EDGE_LOOP('',(#319));
#635=EDGE_LOOP('',(#320));
#636=EDGE_LOOP('',(#321));
#637=EDGE_LOOP('',(#322));
#638=EDGE_LOOP('',(#323));
#639=EDGE_LOOP('',(#324));
#640=EDGE_LOOP('',(#325));
#641=EDGE_LOOP('',(#326));
#642=EDGE_LOOP('',(#327));
#643=EDGE_LOOP('',(#328));
#644=EDGE_LOOP('',(#329));
#645=EDGE_LOOP('',(#330));
#646=EDGE_LOOP('',(#331));
#647=EDGE_LOOP('',(#332));
#648=EDGE_LOOP('',(#333));
#649=EDGE_LOOP('',(#334));
#650=EDGE_LOOP('',(#335));
#651=EDGE_LOOP('',(#336));
#652=EDGE_LOOP('',(#337));
#653=EDGE_LOOP('',(#338));
#654=EDGE_LOOP('',(#339));
#655=EDGE_LOOP('',(#340));
#656=EDGE_LOOP('',(#341));
#657=EDGE_LOOP('',(#342));
#658=EDGE_LOOP('',(#343,#344,#345,#346));
#659=EDGE_LOOP('',(#347,#348,#349,#350));
#660=EDGE_LOOP('',(#351,#352,#353,#354));
#661=EDGE_LOOP('',(#355,#356,#357,#358));
#662=EDGE_LOOP('',(#359,#360,#361,#362));
#663=EDGE_LOOP('',(#363,#364,#365,#366));
#664=EDGE_LOOP('',(#367,#368,#369,#370));
#665=EDGE_LOOP('',(#371,#372,#373,#374,#375,#376,#377,#378,#379,#380,#381,
#382));
#666=EDGE_LOOP('',(#383,#384,#385,#386,#387,#388,#389,#390));
#667=FACE_BOUND('',#603,.T.);
#668=FACE_BOUND('',#604,.T.);
#669=FACE_BOUND('',#605,.T.);
#670=FACE_BOUND('',#606,.T.);
#671=FACE_BOUND('',#607,.T.);
#672=FACE_BOUND('',#608,.T.);
#673=FACE_BOUND('',#609,.T.);
#674=FACE_BOUND('',#610,.T.);
#675=FACE_BOUND('',#611,.T.);
#676=FACE_BOUND('',#612,.T.);
#677=FACE_BOUND('',#613,.T.);
#678=FACE_BOUND('',#614,.T.);
#679=FACE_BOUND('',#615,.T.);
#680=FACE_BOUND('',#616,.T.);
#681=FACE_BOUND('',#617,.T.);
#682=FACE_BOUND('',#618,.T.);
#683=FACE_BOUND('',#619,.T.);
#684=FACE_BOUND('',#620,.T.);
#685=FACE_BOUND('',#621,.T.);
#686=FACE_BOUND('',#622,.T.);
#687=FACE_BOUND('',#623,.T.);
#688=FACE_BOUND('',#624,.T.);
#689=FACE_BOUND('',#625,.T.);
#690=FACE_BOUND('',#626,.T.);
#691=FACE_BOUND('',#627,.T.);
#692=FACE_BOUND('',#628,.T.);
#693=FACE_BOUND('',#629,.T.);
#694=FACE_BOUND('',#630,.T.);
#695=FACE_BOUND('',#631,.T.);
#696=FACE_BOUND('',#632,.T.);
#697=FACE_BOUND('',#633,.T.);
#698=FACE_BOUND('',#634,.T.);
#699=FACE_BOUND('',#635,.T.);
#700=FACE_BOUND('',#636,.T.);
#701=FACE_BOUND('',#637,.T.);
#702=FACE_BOUND('',#638,.T.);
#703=FACE_BOUND('',#639,.T.);
#704=FACE_BOUND('',#640,.T.);
#705=FACE_BOUND('',#641,.T.);
#706=FACE_BOUND('',#642,.T.);
#707=FACE_BOUND('',#643,.T.);
#708=FACE_BOUND('',#644,.T.);
#709=FACE_BOUND('',#645,.T.);
#710=FACE_BOUND('',#646,.T.);
#711=FACE_BOUND('',#647,.T.);
#712=FACE_BOUND('',#648,.T.);
#713=FACE_BOUND('',#649,.T.);
#714=FACE_BOUND('',#650,.T.);
#715=FACE_BOUND('',#651,.T.);
#716=FACE_BOUND('',#652,.T.);
#717=FACE_BOUND('',#653,.T.);
#718=FACE_BOUND('',#654,.T.);
#719=FACE_BOUND('',#655,.T.);
#720=FACE_BOUND('',#656,.T.);
#721=FACE_BOUND('',#657,.T.);
#722=FACE_BOUND('',#658,.T.);
#723=FACE_BOUND('',#659,.T.);
#724=FACE_BOUND('',#660,.T.);
#725=FACE_BOUND('',#661,.T.);
#726=FACE_BOUND('',#662,.T.);
#727=FACE_BOUND('',#663,.T.);
#728=FACE_BOUND('',#664,.T.);
#729=FACE_BOUND('',#665,.T.);
#730=FACE_BOUND('',#666,.T.);
#731=CYLINDRICAL_SURFACE('',#807,0.002);
#732=CYLINDRICAL_SURFACE('',#811,0.002);
#733=CYLINDRICAL_SURFACE('',#835,0.005);
#734=CYLINDRICAL_SURFACE('',#837,0.005);
#735=CYLINDRICAL_SURFACE('',#839,0.005);
#736=CYLINDRICAL_SURFACE('',#841,0.005);
#737=CYLINDRICAL_SURFACE('',#852,0.0005);
#738=CYLINDRICAL_SURFACE('',#853,0.0005);
#739=CYLINDRICAL_SURFACE('',#854,0.0005);
#740=CYLINDRICAL_SURFACE('',#855,0.0005);
#741=CYLINDRICAL_SURFACE('',#856,0.001);
#742=CYLINDRICAL_SURFACE('',#861,0.001);
#743=CYLINDRICAL_SURFACE('',#864,0.002);
#744=CYLINDRICAL_SURFACE('',#868,0.001);
#745=CYLINDRICAL_SURFACE('',#873,0.001);
#746=CYLINDRICAL_SURFACE('',#876,0.002);
#747=ADVANCED_FACE('',(#667,#668),#731,.T.);
#748=ADVANCED_FACE('',(#669,#670),#732,.T.);
#749=ADVANCED_FACE('',(#671,#672),#12,.T.);
#750=ADVANCED_FACE('',(#673),#13,.F.);
#751=ADVANCED_FACE('',(#674),#14,.F.);
#752=ADVANCED_FACE('',(#675),#15,.F.);
#753=ADVANCED_FACE('',(#676),#16,.F.);
#754=ADVANCED_FACE('',(#677),#17,.F.);
#755=ADVANCED_FACE('',(#678),#18,.F.);
#756=ADVANCED_FACE('',(#679),#19,.F.);
#757=ADVANCED_FACE('',(#680),#20,.F.);
#758=ADVANCED_FACE('',(#681,#682,#683),#21,.F.);
#759=ADVANCED_FACE('',(#684),#733,.T.);
#760=ADVANCED_FACE('',(#685),#734,.T.);
#761=ADVANCED_FACE('',(#686),#735,.T.);
#762=ADVANCED_FACE('',(#687),#736,.T.);
#763=ADVANCED_FACE('',(#688),#22,.T.);
#764=ADVANCED_FACE('',(#689),#23,.T.);
#765=ADVANCED_FACE('',(#690),#24,.T.);
#766=ADVANCED_FACE('',(#691),#25,.T.);
#767=ADVANCED_FACE('',(#692,#693),#26,.T.);
#768=ADVANCED_FACE('',(#694),#737,.T.);
#769=ADVANCED_FACE('',(#695),#738,.T.);
#770=ADVANCED_FACE('',(#696),#739,.T.);
#771=ADVANCED_FACE('',(#697),#740,.T.);
#772=ADVANCED_FACE('',(#698,#699),#741,.F.);
#773=ADVANCED_FACE('',(#700,#701),#27,.T.);
#774=ADVANCED_FACE('',(#702),#28,.F.);
#775=ADVANCED_FACE('',(#703,#704),#742,.F.);
#776=ADVANCED_FACE('',(#705,#706),#743,.T.);
#777=ADVANCED_FACE('',(#707,#708),#29,.T.);
#778=ADVANCED_FACE('',(#709),#30,.F.);
#779=ADVANCED_FACE('',(#710,#711),#744,.F.);
#780=ADVANCED_FACE('',(#712,#713),#31,.T.);
#781=ADVANCED_FACE('',(#714),#32,.F.);
#782=ADVANCED_FACE('',(#715,#716),#745,.F.);
#783=ADVANCED_FACE('',(#717,#718),#746,.T.);
#784=ADVANCED_FACE('',(#719,#720),#33,.T.);
#785=ADVANCED_FACE('',(#721),#34,.F.);
#786=ADVANCED_FACE('',(#722),#35,.T.);
#787=ADVANCED_FACE('',(#723),#36,.T.);
#788=ADVANCED_FACE('',(#724),#37,.T.);
#789=ADVANCED_FACE('',(#725),#38,.T.);
#790=ADVANCED_FACE('',(#726),#39,.T.);
#791=ADVANCED_FACE('',(#727),#40,.T.);
#792=ADVANCED_FACE('',(#728),#41,.T.);
#793=ADVANCED_FACE('',(#729,#730),#42,.T.);
#794=CLOSED_SHELL('',(#747,#748,#749,#750,#751,#752,#753,#754,#755,#756,
#757,#758,#759,#760,#761,#762,#763,#764,#765,#766,#767,#768,#769,#770,#771,
#772,#773,#774,#775,#776,#777,#778,#779,#780,#781,#782,#783,#784,#785,#786,
#787,#788,#789,#790,#791,#792,#793));
#795=STYLED_ITEM('',(#796),#803);
#796=PRESENTATION_STYLE_ASSIGNMENT((#797));
#797=SURFACE_STYLE_USAGE(.BOTH.,#798);
#798=SURFACE_SIDE_STYLE('',(#799));
#799=SURFACE_STYLE_FILL_AREA(#800);
#800=FILL_AREA_STYLE('',(#801));
#801=FILL_AREA_STYLE_COLOUR('',#802);
#802=COLOUR_RGB('',0.768627450980392,0.886274509803922,0.952941176470588);
#803=MANIFOLD_SOLID_BREP('Part 191',#794);
#804=SHAPE_DEFINITION_REPRESENTATION(#1354,#805);
#805=SHAPE_REPRESENTATION('Part 191',(#806),#1349);
#806=AXIS2_PLACEMENT_3D('',#1122,#888,#889);
#807=AXIS2_PLACEMENT_3D('',#1123,#890,#891);
#808=AXIS2_PLACEMENT_3D('',#1124,#892,#893);
#809=AXIS2_PLACEMENT_3D('',#1129,#895,#896);
#810=AXIS2_PLACEMENT_3D('',#1133,#898,#899);
#811=AXIS2_PLACEMENT_3D('',#1134,#900,#901);
#812=AXIS2_PLACEMENT_3D('',#1135,#902,#903);
#813=AXIS2_PLACEMENT_3D('',#1140,#905,#906);
#814=AXIS2_PLACEMENT_3D('',#1144,#908,#909);
#815=AXIS2_PLACEMENT_3D('',#1145,#910,#911);
#816=AXIS2_PLACEMENT_3D('',#1149,#913,#914);
#817=AXIS2_PLACEMENT_3D('',#1153,#916,#917);
#818=AXIS2_PLACEMENT_3D('',#1157,#919,#920);
#819=AXIS2_PLACEMENT_3D('',#1161,#922,#923);
#820=AXIS2_PLACEMENT_3D('',#1165,#925,#926);
#821=AXIS2_PLACEMENT_3D('',#1169,#928,#929);
#822=AXIS2_PLACEMENT_3D('',#1173,#931,#932);
#823=AXIS2_PLACEMENT_3D('',#1177,#934,#935);
#824=AXIS2_PLACEMENT_3D('',#1178,#936,#937);
#825=AXIS2_PLACEMENT_3D('',#1184,#941,#942);
#826=AXIS2_PLACEMENT_3D('',#1190,#946,#947);
#827=AXIS2_PLACEMENT_3D('',#1196,#951,#952);
#828=AXIS2_PLACEMENT_3D('',#1205,#957,#958);
#829=AXIS2_PLACEMENT_3D('',#1215,#964,#965);
#830=AXIS2_PLACEMENT_3D('',#1221,#969,#970);
#831=AXIS2_PLACEMENT_3D('',#1228,#975,#976);
#832=AXIS2_PLACEMENT_3D('',#1234,#980,#981);
#833=AXIS2_PLACEMENT_3D('',#1235,#982,#983);
#834=AXIS2_PLACEMENT_3D('',#1248,#991,#992);
#835=AXIS2_PLACEMENT_3D('',#1250,#993,#994);
#836=AXIS2_PLACEMENT_3D('',#1251,#995,#996);
#837=AXIS2_PLACEMENT_3D('',#1252,#997,#998);
#838=AXIS2_PLACEMENT_3D('',#1253,#999,#1000);
#839=AXIS2_PLACEMENT_3D('',#1254,#1001,#1002);
#840=AXIS2_PLACEMENT_3D('',#1255,#1003,#1004);
#841=AXIS2_PLACEMENT_3D('',#1256,#1005,#1006);
#842=AXIS2_PLACEMENT_3D('',#1257,#1007,#1008);
#843=AXIS2_PLACEMENT_3D('',#1258,#1009,#1010);
#844=AXIS2_PLACEMENT_3D('',#1264,#1014,#1015);
#845=AXIS2_PLACEMENT_3D('',#1270,#1019,#1020);
#846=AXIS2_PLACEMENT_3D('',#1276,#1024,#1025);
#847=AXIS2_PLACEMENT_3D('',#1282,#1029,#1030);
#848=AXIS2_PLACEMENT_3D('',#1283,#1031,#1032);
#849=AXIS2_PLACEMENT_3D('',#1284,#1033,#1034);
#850=AXIS2_PLACEMENT_3D('',#1285,#1035,#1036);
#851=AXIS2_PLACEMENT_3D('',#1286,#1037,#1038);
#852=AXIS2_PLACEMENT_3D('',#1287,#1039,#1040);
#853=AXIS2_PLACEMENT_3D('',#1288,#1041,#1042);
#854=AXIS2_PLACEMENT_3D('',#1289,#1043,#1044);
#855=AXIS2_PLACEMENT_3D('',#1290,#1045,#1046);
#856=AXIS2_PLACEMENT_3D('',#1291,#1047,#1048);
#857=AXIS2_PLACEMENT_3D('',#1292,#1049,#1050);
#858=AXIS2_PLACEMENT_3D('',#1294,#1051,#1052);
#859=AXIS2_PLACEMENT_3D('',#1296,#1053,#1054);
#860=AXIS2_PLACEMENT_3D('',#1297,#1055,#1056);
#861=AXIS2_PLACEMENT_3D('',#1298,#1057,#1058);
#862=AXIS2_PLACEMENT_3D('',#1299,#1059,#1060);
#863=AXIS2_PLACEMENT_3D('',#1301,#1061,#1062);
#864=AXIS2_PLACEMENT_3D('',#1303,#1063,#1064);
#865=AXIS2_PLACEMENT_3D('',#1304,#1065,#1066);
#866=AXIS2_PLACEMENT_3D('',#1306,#1067,#1068);
#867=AXIS2_PLACEMENT_3D('',#1307,#1069,#1070);
#868=AXIS2_PLACEMENT_3D('',#1308,#1071,#1072);
#869=AXIS2_PLACEMENT_3D('',#1309,#1073,#1074);
#870=AXIS2_PLACEMENT_3D('',#1311,#1075,#1076);
#871=AXIS2_PLACEMENT_3D('',#1313,#1077,#1078);
#872=AXIS2_PLACEMENT_3D('',#1314,#1079,#1080);
#873=AXIS2_PLACEMENT_3D('',#1315,#1081,#1082);
#874=AXIS2_PLACEMENT_3D('',#1316,#1083,#1084);
#875=AXIS2_PLACEMENT_3D('',#1318,#1085,#1086);
#876=AXIS2_PLACEMENT_3D('',#1320,#1087,#1088);
#877=AXIS2_PLACEMENT_3D('',#1321,#1089,#1090);
#878=AXIS2_PLACEMENT_3D('',#1323,#1091,#1092);
#879=AXIS2_PLACEMENT_3D('',#1324,#1093,#1094);
#880=AXIS2_PLACEMENT_3D('',#1325,#1095,#1096);
#881=AXIS2_PLACEMENT_3D('',#1327,#1098,#1099);
#882=AXIS2_PLACEMENT_3D('',#1329,#1101,#1102);
#883=AXIS2_PLACEMENT_3D('',#1333,#1105,#1106);
#884=AXIS2_PLACEMENT_3D('',#1337,#1109,#1110);
#885=AXIS2_PLACEMENT_3D('',#1341,#1113,#1114);
#886=AXIS2_PLACEMENT_3D('',#1345,#1117,#1118);
#887=AXIS2_PLACEMENT_3D('',#1347,#1120,#1121);
#888=DIRECTION('',(0.,0.,1.));
#889=DIRECTION('',(1.,0.,0.));
#890=DIRECTION('',(0.,0.,1.));
#891=DIRECTION('',(1.,0.,0.));
#892=DIRECTION('',(0.,0.,-1.));
#893=DIRECTION('',(-1.,0.,0.));
#894=DIRECTION('',(0.,0.,1.));
#895=DIRECTION('',(0.,0.,-1.));
#896=DIRECTION('',(-1.,0.,0.));
#897=DIRECTION('',(0.,0.,1.));
#898=DIRECTION('',(0.,0.,-1.));
#899=DIRECTION('',(-1.,0.,0.));
#900=DIRECTION('',(0.,0.,1.));
#901=DIRECTION('',(1.,0.,0.));
#902=DIRECTION('',(0.,0.,-1.));
#903=DIRECTION('',(-1.,0.,0.));
#904=DIRECTION('',(0.,0.,1.));
#905=DIRECTION('',(0.,0.,-1.));
#906=DIRECTION('',(-1.,0.,0.));
#907=DIRECTION('',(0.,0.,1.));
#908=DIRECTION('',(0.,0.,-1.));
#909=DIRECTION('',(-1.,0.,0.));
#910=DIRECTION('',(0.,0.,1.));
#911=DIRECTION('',(1.,0.,0.));
#912=DIRECTION('',(-1.,0.,0.));
#913=DIRECTION('',(0.,0.,1.));
#914=DIRECTION('',(1.,0.,0.));
#915=DIRECTION('',(-2.52810273088614E-17,-1.,0.));
#916=DIRECTION('',(0.,0.,1.));
#917=DIRECTION('',(1.,0.,0.));
#918=DIRECTION('',(1.,0.,0.));
#919=DIRECTION('',(0.,0.,1.));
#920=DIRECTION('',(1.,0.,0.));
#921=DIRECTION('',(0.,1.,0.));
#922=DIRECTION('',(0.,0.,1.));
#923=DIRECTION('',(1.,0.,0.));
#924=DIRECTION('',(0.,-1.,0.));
#925=DIRECTION('',(0.,0.,1.));
#926=DIRECTION('',(1.,0.,0.));
#927=DIRECTION('',(-1.,0.,0.));
#928=DIRECTION('',(0.,0.,1.));
#929=DIRECTION('',(1.,0.,0.));
#930=DIRECTION('',(-3.33600668457079E-16,1.,0.));
#931=DIRECTION('',(0.,0.,1.));
#932=DIRECTION('',(1.,0.,0.));
#933=DIRECTION('',(1.,0.,0.));
#934=DIRECTION('',(0.,0.,1.));
#935=DIRECTION('',(1.,0.,0.));
#936=DIRECTION('',(-1.,0.,0.));
#937=DIRECTION('',(0.,0.,1.));
#938=DIRECTION('',(0.,0.,-1.));
#939=DIRECTION('',(0.,1.,0.));
#940=DIRECTION('',(0.,0.,-1.));
#941=DIRECTION('',(0.,-1.,0.));
#942=DIRECTION('',(0.,0.,-1.));
#943=DIRECTION('',(0.,0.,-1.));
#944=DIRECTION('',(-1.,0.,0.));
#945=DIRECTION('',(0.,0.,-1.));
#946=DIRECTION('',(1.,-2.52810273088614E-17,0.));
#947=DIRECTION('',(2.52810273088614E-17,1.,0.));
#948=DIRECTION('',(0.,0.,-1.));
#949=DIRECTION('',(-2.52810273088614E-17,-1.,0.));
#950=DIRECTION('',(0.,0.,-1.));
#951=DIRECTION('',(-1.,-1.94912750109753E-16,0.));
#952=DIRECTION('',(1.94912750109753E-16,-1.,0.));
#953=DIRECTION('',(0.,0.,-1.));
#954=DIRECTION('',(-1.94912750109753E-16,1.,0.));
#955=DIRECTION('',(0.,0.,-1.));
#956=DIRECTION('',(-1.94912750109753E-16,1.,0.));
#957=DIRECTION('',(0.,1.,0.));
#958=DIRECTION('',(0.,0.,1.));
#959=DIRECTION('',(1.,0.,0.));
#960=DIRECTION('',(0.,0.,1.));
#961=DIRECTION('',(1.,0.,0.));
#962=DIRECTION('',(0.,0.,-1.));
#963=DIRECTION('',(1.,0.,0.));
#964=DIRECTION('',(1.,0.,0.));
#965=DIRECTION('',(0.,0.,-1.));
#966=DIRECTION('',(0.,-1.,0.));
#967=DIRECTION('',(0.,0.,-1.));
#968=DIRECTION('',(0.,-1.,0.));
#969=DIRECTION('',(0.,-1.,0.));
#970=DIRECTION('',(0.,0.,-1.));
#971=DIRECTION('',(-1.,0.,0.));
#972=DIRECTION('',(0.,0.,1.));
#973=DIRECTION('',(-1.,0.,0.));
#974=DIRECTION('',(-1.,0.,0.));
#975=DIRECTION('',(0.,1.,0.));
#976=DIRECTION('',(0.,0.,1.));
#977=DIRECTION('',(0.,0.,-1.));
#978=DIRECTION('',(1.,0.,0.));
#979=DIRECTION('',(0.,0.,-1.));
#980=DIRECTION('',(0.,0.,1.));
#981=DIRECTION('',(1.,0.,0.));
#982=DIRECTION('',(0.,0.,-1.));
#983=DIRECTION('',(-1.,0.,0.));
#984=DIRECTION('',(0.,1.,0.));
#985=DIRECTION('',(0.,1.,0.));
#986=DIRECTION('',(1.,0.,0.));
#987=DIRECTION('',(0.,-1.,0.));
#988=DIRECTION('',(-1.,0.,0.));
#989=DIRECTION('',(0.,1.,0.));
#990=DIRECTION('',(0.,1.,0.));
#991=DIRECTION('',(0.,0.,-1.));
#992=DIRECTION('',(-1.,0.,0.));
#993=DIRECTION('',(0.,0.,-1.));
#994=DIRECTION('',(-1.,0.,0.));
#995=DIRECTION('',(0.,0.,1.));
#996=DIRECTION('',(1.,0.,0.));
#997=DIRECTION('',(0.,0.,-1.));
#998=DIRECTION('',(-1.,0.,0.));
#999=DIRECTION('',(0.,0.,1.));
#1000=DIRECTION('',(1.,0.,0.));
#1001=DIRECTION('',(0.,0.,-1.));
#1002=DIRECTION('',(-1.,0.,0.));
#1003=DIRECTION('',(0.,0.,1.));
#1004=DIRECTION('',(1.,0.,0.));
#1005=DIRECTION('',(0.,0.,-1.));
#1006=DIRECTION('',(-1.,0.,0.));
#1007=DIRECTION('',(0.,0.,1.));
#1008=DIRECTION('',(1.,0.,0.));
#1009=DIRECTION('',(-1.,-3.33600668457079E-16,0.));
#1010=DIRECTION('',(3.33600668457079E-16,-1.,0.));
#1011=DIRECTION('',(0.,0.,-1.));
#1012=DIRECTION('',(-3.33600668457079E-16,1.,0.));
#1013=DIRECTION('',(0.,0.,-1.));
#1014=DIRECTION('',(0.,-1.,0.));
#1015=DIRECTION('',(0.,0.,-1.));
#1016=DIRECTION('',(0.,0.,-1.));
#1017=DIRECTION('',(-1.,0.,0.));
#1018=DIRECTION('',(0.,0.,-1.));
#1019=DIRECTION('',(1.,0.,0.));
#1020=DIRECTION('',(0.,0.,-1.));
#1021=DIRECTION('',(0.,0.,-1.));
#1022=DIRECTION('',(0.,-1.,0.));
#1023=DIRECTION('',(0.,0.,-1.));
#1024=DIRECTION('',(0.,1.,0.));
#1025=DIRECTION('',(0.,0.,1.));
#1026=DIRECTION('',(1.,0.,0.));
#1027=DIRECTION('',(0.,0.,-1.));
#1028=DIRECTION('',(0.,0.,-1.));
#1029=DIRECTION('',(0.,0.,1.));
#1030=DIRECTION('',(1.,0.,0.));
#1031=DIRECTION('',(0.,0.,1.));
#1032=DIRECTION('',(1.,0.,0.));
#1033=DIRECTION('',(0.,0.,1.));
#1034=DIRECTION('',(1.,0.,0.));
#1035=DIRECTION('',(0.,0.,1.));
#1036=DIRECTION('',(1.,0.,0.));
#1037=DIRECTION('',(0.,0.,1.));
#1038=DIRECTION('',(1.,0.,0.));
#1039=DIRECTION('',(0.,0.,-1.));
#1040=DIRECTION('',(-1.,0.,0.));
#1041=DIRECTION('',(0.,0.,-1.));
#1042=DIRECTION('',(-1.,0.,0.));
#1043=DIRECTION('',(0.,0.,-1.));
#1044=DIRECTION('',(-1.,0.,0.));
#1045=DIRECTION('',(0.,0.,-1.));
#1046=DIRECTION('',(-1.,0.,0.));
#1047=DIRECTION('',(0.,0.,1.));
#1048=DIRECTION('',(1.,0.,0.));
#1049=DIRECTION('',(0.,0.,-1.));
#1050=DIRECTION('',(-1.,0.,0.));
#1051=DIRECTION('',(0.,0.,-1.));
#1052=DIRECTION('',(-1.,0.,0.));
#1053=DIRECTION('',(0.,0.,-1.));
#1054=DIRECTION('',(1.,0.,0.));
#1055=DIRECTION('',(0.,0.,1.));
#1056=DIRECTION('',(1.,0.,0.));
#1057=DIRECTION('',(0.,0.,1.));
#1058=DIRECTION('',(1.,0.,0.));
#1059=DIRECTION('',(0.,0.,-1.));
#1060=DIRECTION('',(-1.,0.,0.));
#1061=DIRECTION('',(0.,0.,-1.));
#1062=DIRECTION('',(-1.,0.,0.));
#1063=DIRECTION('',(0.,0.,1.));
#1064=DIRECTION('',(1.,0.,0.));
#1065=DIRECTION('',(0.,0.,-1.));
#1066=DIRECTION('',(-1.,0.,0.));
#1067=DIRECTION('',(0.,0.,-1.));
#1068=DIRECTION('',(1.,0.,0.));
#1069=DIRECTION('',(0.,0.,1.));
#1070=DIRECTION('',(1.,0.,0.));
#1071=DIRECTION('',(0.,0.,1.));
#1072=DIRECTION('',(1.,0.,0.));
#1073=DIRECTION('',(0.,0.,-1.));
#1074=DIRECTION('',(-1.,0.,0.));
#1075=DIRECTION('',(0.,0.,-1.));
#1076=DIRECTION('',(-1.,0.,0.));
#1077=DIRECTION('',(0.,0.,-1.));
#1078=DIRECTION('',(1.,0.,0.));
#1079=DIRECTION('',(0.,0.,1.));
#1080=DIRECTION('',(1.,0.,0.));
#1081=DIRECTION('',(0.,0.,1.));
#1082=DIRECTION('',(1.,0.,0.));
#1083=DIRECTION('',(0.,0.,-1.));
#1084=DIRECTION('',(-1.,0.,0.));
#1085=DIRECTION('',(0.,0.,-1.));
#1086=DIRECTION('',(-1.,0.,0.));
#1087=DIRECTION('',(0.,0.,1.));
#1088=DIRECTION('',(1.,0.,0.));
#1089=DIRECTION('',(0.,0.,-1.));
#1090=DIRECTION('',(-1.,0.,0.));
#1091=DIRECTION('',(0.,0.,-1.));
#1092=DIRECTION('',(1.,0.,0.));
#1093=DIRECTION('',(0.,0.,1.));
#1094=DIRECTION('',(1.,0.,0.));
#1095=DIRECTION('',(1.,0.,0.));
#1096=DIRECTION('',(0.,0.,-1.));
#1097=DIRECTION('',(0.,1.,0.));
#1098=DIRECTION('',(1.,0.,0.));
#1099=DIRECTION('',(0.,0.,-1.));
#1100=DIRECTION('',(0.,1.,0.));
#1101=DIRECTION('',(1.,0.,0.));
#1102=DIRECTION('',(0.,0.,-1.));
#1103=DIRECTION('',(0.,0.,1.));
#1104=DIRECTION('',(0.,1.,0.));
#1105=DIRECTION('',(0.,1.,0.));
#1106=DIRECTION('',(0.,0.,1.));
#1107=DIRECTION('',(0.,0.,1.));
#1108=DIRECTION('',(-1.,0.,0.));
#1109=DIRECTION('',(-1.,0.,0.));
#1110=DIRECTION('',(0.,0.,1.));
#1111=DIRECTION('',(0.,0.,1.));
#1112=DIRECTION('',(0.,-1.,0.));
#1113=DIRECTION('',(0.,-1.,0.));
#1114=DIRECTION('',(0.,0.,-1.));
#1115=DIRECTION('',(0.,0.,1.));
#1116=DIRECTION('',(1.,0.,0.));
#1117=DIRECTION('',(1.,0.,0.));
#1118=DIRECTION('',(0.,0.,-1.));
#1119=DIRECTION('',(0.,1.,0.));
#1120=DIRECTION('',(0.,0.,-1.));
#1121=DIRECTION('',(1.,0.,0.));
#1122=CARTESIAN_POINT('',(0.,0.,0.));
#1123=CARTESIAN_POINT('',(0.018477203454407,0.013189449701056,0.047));
#1124=CARTESIAN_POINT('',(0.018477203454407,0.013189449701056,0.047));
#1125=CARTESIAN_POINT('',(0.016477203454407,0.013189449701056,0.047));
#1126=CARTESIAN_POINT('',(0.0187,0.0112018980163766,0.048));
#1127=CARTESIAN_POINT('',(0.0187,0.0112018980163766,0.048));
#1128=CARTESIAN_POINT('',(0.0187,0.0112018980163766,0.05));
#1129=CARTESIAN_POINT('',(0.018477203454407,0.013189449701056,0.048));
#1130=CARTESIAN_POINT('',(0.0187,0.0151770013857353,0.048));
#1131=CARTESIAN_POINT('',(0.0187,0.0151770013857353,0.048));
#1132=CARTESIAN_POINT('',(0.0187,0.0151770013857353,0.05));
#1133=CARTESIAN_POINT('',(0.018477203454407,0.013189449701056,0.05));
#1134=CARTESIAN_POINT('',(0.018477203454407,0.036989449701056,0.047));
#1135=CARTESIAN_POINT('',(0.018477203454407,0.036989449701056,0.047));
#1136=CARTESIAN_POINT('',(0.016477203454407,0.036989449701056,0.047));
#1137=CARTESIAN_POINT('',(0.0187,0.0350018980163766,0.048));
#1138=CARTESIAN_POINT('',(0.0187,0.0350018980163766,0.048));
#1139=CARTESIAN_POINT('',(0.0187,0.0350018980163766,0.05));
#1140=CARTESIAN_POINT('',(0.018477203454407,0.036989449701056,0.048));
#1141=CARTESIAN_POINT('',(0.0187,0.0389770013857354,0.048));
#1142=CARTESIAN_POINT('',(0.0187,0.0389770013857354,0.048));
#1143=CARTESIAN_POINT('',(0.0187,0.0389770013857354,0.05));
#1144=CARTESIAN_POINT('',(0.018477203454407,0.036989449701056,0.05));
#1145=CARTESIAN_POINT('',(0.062486791973584,0.0267088011176025,0.052));
#1146=CARTESIAN_POINT('',(0.062486791973584,0.061017602235205,0.052));
#1147=CARTESIAN_POINT('',(0.106273583947168,0.061017602235205,0.052));
#1148=CARTESIAN_POINT('',(0.0187,0.061017602235205,0.052));
#1149=CARTESIAN_POINT('',(0.0187,0.056017602235205,0.052));
#1150=CARTESIAN_POINT('',(0.0137,0.056017602235205,0.052));
#1151=CARTESIAN_POINT('',(0.0137,0.0267088011176025,0.052));
#1152=CARTESIAN_POINT('',(0.0137,-0.0026,0.052));
#1153=CARTESIAN_POINT('',(0.0187,-0.0026,0.052));
#1154=CARTESIAN_POINT('',(0.0187,-0.0076,0.052));
#1155=CARTESIAN_POINT('',(0.062486791973584,-0.0076,0.052));
#1156=CARTESIAN_POINT('',(0.106273583947168,-0.0076,0.052));
#1157=CARTESIAN_POINT('',(0.106273583947168,-0.0026,0.052));
#1158=CARTESIAN_POINT('',(0.111273583947168,-0.0026,0.052));
#1159=CARTESIAN_POINT('',(0.111273583947168,0.0267088011176025,0.052));
#1160=CARTESIAN_POINT('',(0.111273583947168,0.056017602235205,0.052));
#1161=CARTESIAN_POINT('',(0.106273583947168,0.056017602235205,0.052));
#1162=CARTESIAN_POINT('',(0.044077203454406,0.025089449701056,0.052));
#1163=CARTESIAN_POINT('',(0.044077203454406,0.034989449701056,0.052));
#1164=CARTESIAN_POINT('',(0.044077203454406,0.015189449701056,0.052));
#1165=CARTESIAN_POINT('',(0.043577203454406,0.015189449701056,0.052));
#1166=CARTESIAN_POINT('',(0.043577203454406,0.014689449701056,0.052));
#1167=CARTESIAN_POINT('',(0.030227203454407,0.014689449701056,0.052));
#1168=CARTESIAN_POINT('',(0.016877203454408,0.014689449701056,0.052));
#1169=CARTESIAN_POINT('',(0.016877203454408,0.015189449701056,0.052));
#1170=CARTESIAN_POINT('',(0.016377203454408,0.015189449701056,0.052));
#1171=CARTESIAN_POINT('',(0.016377203454408,0.025089449701056,0.052));
#1172=CARTESIAN_POINT('',(0.016377203454408,0.034989449701056,0.052));
#1173=CARTESIAN_POINT('',(0.016877203454408,0.034989449701056,0.052));
#1174=CARTESIAN_POINT('',(0.016877203454408,0.035489449701056,0.052));
#1175=CARTESIAN_POINT('',(0.030227203454407,0.035489449701056,0.052));
#1176=CARTESIAN_POINT('',(0.043577203454406,0.035489449701056,0.052));
#1177=CARTESIAN_POINT('',(0.043577203454406,0.034989449701056,0.052));
#1178=CARTESIAN_POINT('',(0.111273583947168,0.0267088011176025,0.052));
#1179=CARTESIAN_POINT('',(0.111273583947168,-0.0026,0.052));
#1180=CARTESIAN_POINT('',(0.111273583947168,-0.0026,0.048));
#1181=CARTESIAN_POINT('',(0.111273583947168,0.0267088011176025,0.048));
#1182=CARTESIAN_POINT('',(0.111273583947168,0.056017602235205,0.048));
#1183=CARTESIAN_POINT('',(0.111273583947168,0.056017602235205,0.052));
#1184=CARTESIAN_POINT('',(0.062486791973584,0.061017602235205,0.052));
#1185=CARTESIAN_POINT('',(0.106273583947168,0.061017602235205,0.052));
#1186=CARTESIAN_POINT('',(0.106273583947168,0.061017602235205,0.048));
#1187=CARTESIAN_POINT('',(0.062486791973584,0.061017602235205,0.048));
#1188=CARTESIAN_POINT('',(0.0187,0.061017602235205,0.048));
#1189=CARTESIAN_POINT('',(0.0187,0.061017602235205,0.052));
#1190=CARTESIAN_POINT('',(0.0137,0.0267088011176025,0.052));
#1191=CARTESIAN_POINT('',(0.0137,0.056017602235205,0.052));
#1192=CARTESIAN_POINT('',(0.0137,0.056017602235205,0.048));
#1193=CARTESIAN_POINT('',(0.0137,0.0267088011176025,0.048));
#1194=CARTESIAN_POINT('',(0.0137,-0.0026,0.048));
#1195=CARTESIAN_POINT('',(0.0137,-0.0026,0.052));
#1196=CARTESIAN_POINT('',(0.017877203454408,0.025089449701056,0.052));
#1197=CARTESIAN_POINT('',(0.017877203454408,0.016189449701056,0.052));
#1198=CARTESIAN_POINT('',(0.017877203454408,0.016189449701056,0.053));
#1199=CARTESIAN_POINT('',(0.017877203454408,0.016189449701056,0.048));
#1200=CARTESIAN_POINT('',(0.017877203454408,0.025089449701056,0.048));
#1201=CARTESIAN_POINT('',(0.017877203454408,0.033989449701056,0.048));
#1202=CARTESIAN_POINT('',(0.017877203454408,0.033989449701056,0.052));
#1203=CARTESIAN_POINT('',(0.017877203454408,0.033989449701056,0.053));
#1204=CARTESIAN_POINT('',(0.017877203454408,0.025089449701056,0.053));
#1205=CARTESIAN_POINT('',(0.030227203454407,0.033989449701056,0.052));
#1206=CARTESIAN_POINT('',(0.030227203454407,0.033989449701056,0.048));
#1207=CARTESIAN_POINT('',(0.0187,0.033989449701056,0.048));
#1208=CARTESIAN_POINT('',(0.0187,0.033989449701056,0.048));
#1209=CARTESIAN_POINT('',(0.0187,0.033989449701056,0.05));
#1210=CARTESIAN_POINT('',(0.030227203454407,0.033989449701056,0.05));
#1211=CARTESIAN_POINT('',(0.042577203454406,0.033989449701056,0.05));
#1212=CARTESIAN_POINT('',(0.042577203454406,0.033989449701056,0.052));
#1213=CARTESIAN_POINT('',(0.042577203454406,0.033989449701056,0.053));
#1214=CARTESIAN_POINT('',(0.030227203454407,0.033989449701056,0.053));
#1215=CARTESIAN_POINT('',(0.042577203454406,0.025089449701056,0.052));
#1216=CARTESIAN_POINT('',(0.042577203454406,0.025089449701056,0.05));
#1217=CARTESIAN_POINT('',(0.042577203454406,0.016189449701056,0.05));
#1218=CARTESIAN_POINT('',(0.042577203454406,0.016189449701056,0.052));
#1219=CARTESIAN_POINT('',(0.042577203454406,0.016189449701056,0.053));
#1220=CARTESIAN_POINT('',(0.042577203454406,0.025089449701056,0.053));
#1221=CARTESIAN_POINT('',(0.030227203454407,0.016189449701056,0.052));
#1222=CARTESIAN_POINT('',(0.030227203454407,0.016189449701056,0.05));
#1223=CARTESIAN_POINT('',(0.0187,0.016189449701056,0.05));
#1224=CARTESIAN_POINT('',(0.0187,0.016189449701056,0.048));
#1225=CARTESIAN_POINT('',(0.0187,0.016189449701056,0.048));
#1226=CARTESIAN_POINT('',(0.030227203454407,0.016189449701056,0.048));
#1227=CARTESIAN_POINT('',(0.030227203454407,0.016189449701056,0.053));
#1228=CARTESIAN_POINT('',(0.062486791973584,-0.0076,0.052));
#1229=CARTESIAN_POINT('',(0.0187,-0.0076,0.052));
#1230=CARTESIAN_POINT('',(0.0187,-0.0076,0.048));
#1231=CARTESIAN_POINT('',(0.062486791973584,-0.0076,0.048));
#1232=CARTESIAN_POINT('',(0.106273583947168,-0.0076,0.048));
#1233=CARTESIAN_POINT('',(0.106273583947168,-0.0076,0.052));
#1234=CARTESIAN_POINT('',(0.062486791973584,0.0267088011176025,0.05));
#1235=CARTESIAN_POINT('',(0.041977203454407,0.013189449701056,0.05));
#1236=CARTESIAN_POINT('',(0.039977203454407,0.013189449701056,0.05));
#1237=CARTESIAN_POINT('',(0.0187,0.0267088011176025,0.05));
#1238=CARTESIAN_POINT('',(0.0187,0.0267088011176025,0.05));
#1239=CARTESIAN_POINT('',(0.0187,0.056017602235205,0.05));
#1240=CARTESIAN_POINT('',(0.062486791973584,0.056017602235205,0.05));
#1241=CARTESIAN_POINT('',(0.106273583947168,0.056017602235205,0.05));
#1242=CARTESIAN_POINT('',(0.106273583947168,0.0267088011176025,0.05));
#1243=CARTESIAN_POINT('',(0.106273583947168,-0.0026,0.05));
#1244=CARTESIAN_POINT('',(0.062486791973584,-0.0026,0.05));
#1245=CARTESIAN_POINT('',(0.0187,-0.0026,0.05));
#1246=CARTESIAN_POINT('',(0.0187,0.0267088011176025,0.05));
#1247=CARTESIAN_POINT('',(0.0187,0.0267088011176025,0.05));
#1248=CARTESIAN_POINT('',(0.041977203454407,0.036989449701056,0.05));
#1249=CARTESIAN_POINT('',(0.039977203454407,0.036989449701056,0.05));
#1250=CARTESIAN_POINT('',(0.0187,0.056017602235205,0.052));
#1251=CARTESIAN_POINT('',(0.0187,0.056017602235205,0.048));
#1252=CARTESIAN_POINT('',(0.106273583947168,0.056017602235205,0.052));
#1253=CARTESIAN_POINT('',(0.106273583947168,0.056017602235205,0.048));
#1254=CARTESIAN_POINT('',(0.106273583947168,-0.0026,0.052));
#1255=CARTESIAN_POINT('',(0.106273583947168,-0.0026,0.048));
#1256=CARTESIAN_POINT('',(0.0187,-0.0026,0.052));
#1257=CARTESIAN_POINT('',(0.0187,-0.0026,0.048));
#1258=CARTESIAN_POINT('',(0.016377203454408,0.025089449701056,0.053));
#1259=CARTESIAN_POINT('',(0.016377203454408,0.015189449701056,0.053));
#1260=CARTESIAN_POINT('',(0.016377203454408,0.015189449701056,0.053));
#1261=CARTESIAN_POINT('',(0.016377203454408,0.025089449701056,0.053));
#1262=CARTESIAN_POINT('',(0.016377203454408,0.034989449701056,0.053));
#1263=CARTESIAN_POINT('',(0.016377203454408,0.034989449701056,0.053));
#1264=CARTESIAN_POINT('',(0.030227203454407,0.014689449701056,0.053));
#1265=CARTESIAN_POINT('',(0.043577203454406,0.014689449701056,0.053));
#1266=CARTESIAN_POINT('',(0.043577203454406,0.014689449701056,0.053));
#1267=CARTESIAN_POINT('',(0.030227203454407,0.014689449701056,0.053));
#1268=CARTESIAN_POINT('',(0.016877203454408,0.014689449701056,0.053));
#1269=CARTESIAN_POINT('',(0.016877203454408,0.014689449701056,0.053));
#1270=CARTESIAN_POINT('',(0.044077203454406,0.025089449701056,0.053));
#1271=CARTESIAN_POINT('',(0.044077203454406,0.034989449701056,0.053));
#1272=CARTESIAN_POINT('',(0.044077203454406,0.034989449701056,0.053));
#1273=CARTESIAN_POINT('',(0.044077203454406,0.025089449701056,0.053));
#1274=CARTESIAN_POINT('',(0.044077203454406,0.015189449701056,0.053));
#1275=CARTESIAN_POINT('',(0.044077203454406,0.015189449701056,0.053));
#1276=CARTESIAN_POINT('',(0.030227203454407,0.035489449701056,0.053));
#1277=CARTESIAN_POINT('',(0.030227203454407,0.035489449701056,0.053));
#1278=CARTESIAN_POINT('',(0.016877203454408,0.035489449701056,0.053));
#1279=CARTESIAN_POINT('',(0.043577203454406,0.035489449701056,0.053));
#1280=CARTESIAN_POINT('',(0.043577203454406,0.035489449701056,0.053));
#1281=CARTESIAN_POINT('',(0.016877203454408,0.035489449701056,0.053));
#1282=CARTESIAN_POINT('',(0.062486791973584,0.0267088011176025,0.053));
#1283=CARTESIAN_POINT('',(0.043577203454406,0.034989449701056,0.053));
#1284=CARTESIAN_POINT('',(0.016877203454408,0.034989449701056,0.053));
#1285=CARTESIAN_POINT('',(0.016877203454408,0.015189449701056,0.053));
#1286=CARTESIAN_POINT('',(0.043577203454406,0.015189449701056,0.053));
#1287=CARTESIAN_POINT('',(0.043577203454406,0.034989449701056,0.053));
#1288=CARTESIAN_POINT('',(0.043577203454406,0.015189449701056,0.053));
#1289=CARTESIAN_POINT('',(0.016877203454408,0.015189449701056,0.053));
#1290=CARTESIAN_POINT('',(0.016877203454408,0.034989449701056,0.053));
#1291=CARTESIAN_POINT('',(0.018477203454407,0.013189449701056,0.047));
#1292=CARTESIAN_POINT('',(0.018477203454407,0.013189449701056,0.047));
#1293=CARTESIAN_POINT('',(0.017477203454407,0.013189449701056,0.047));
#1294=CARTESIAN_POINT('',(0.018477203454407,0.013189449701056,0.05));
#1295=CARTESIAN_POINT('',(0.017477203454407,0.013189449701056,0.05));
#1296=CARTESIAN_POINT('',(0.062486791973584,0.0267088011176025,0.047));
#1297=CARTESIAN_POINT('',(0.062486791973584,0.0267088011176025,0.05));
#1298=CARTESIAN_POINT('',(0.041977203454407,0.036989449701056,0.047));
#1299=CARTESIAN_POINT('',(0.041977203454407,0.036989449701056,0.047));
#1300=CARTESIAN_POINT('',(0.040977203454407,0.036989449701056,0.047));
#1301=CARTESIAN_POINT('',(0.041977203454407,0.036989449701056,0.05));
#1302=CARTESIAN_POINT('',(0.040977203454407,0.036989449701056,0.05));
#1303=CARTESIAN_POINT('',(0.041977203454407,0.036989449701056,0.047));
#1304=CARTESIAN_POINT('',(0.041977203454407,0.036989449701056,0.047));
#1305=CARTESIAN_POINT('',(0.039977203454407,0.036989449701056,0.047));
#1306=CARTESIAN_POINT('',(0.062486791973584,0.0267088011176025,0.047));
#1307=CARTESIAN_POINT('',(0.062486791973584,0.0267088011176025,0.05));
#1308=CARTESIAN_POINT('',(0.018477203454407,0.036989449701056,0.047));
#1309=CARTESIAN_POINT('',(0.018477203454407,0.036989449701056,0.047));
#1310=CARTESIAN_POINT('',(0.017477203454407,0.036989449701056,0.047));
#1311=CARTESIAN_POINT('',(0.018477203454407,0.036989449701056,0.05));
#1312=CARTESIAN_POINT('',(0.017477203454407,0.036989449701056,0.05));
#1313=CARTESIAN_POINT('',(0.062486791973584,0.0267088011176025,0.047));
#1314=CARTESIAN_POINT('',(0.062486791973584,0.0267088011176025,0.05));
#1315=CARTESIAN_POINT('',(0.041977203454407,0.013189449701056,0.047));
#1316=CARTESIAN_POINT('',(0.041977203454407,0.013189449701056,0.047));
#1317=CARTESIAN_POINT('',(0.040977203454407,0.013189449701056,0.047));
#1318=CARTESIAN_POINT('',(0.041977203454407,0.013189449701056,0.05));
#1319=CARTESIAN_POINT('',(0.040977203454407,0.013189449701056,0.05));
#1320=CARTESIAN_POINT('',(0.041977203454407,0.013189449701056,0.047));
#1321=CARTESIAN_POINT('',(0.041977203454407,0.013189449701056,0.047));
#1322=CARTESIAN_POINT('',(0.039977203454407,0.013189449701056,0.047));
#1323=CARTESIAN_POINT('',(0.062486791973584,0.0267088011176025,0.047));
#1324=CARTESIAN_POINT('',(0.062486791973584,0.0267088011176025,0.05));
#1325=CARTESIAN_POINT('',(0.0187,0.0267088011176025,0.048));
#1326=CARTESIAN_POINT('',(0.0187,0.0267088011176025,0.048));
#1327=CARTESIAN_POINT('',(0.0187,0.0267088011176025,0.048));
#1328=CARTESIAN_POINT('',(0.0187,0.0267088011176025,0.048));
#1329=CARTESIAN_POINT('',(0.0187,0.0267088011176025,0.048));
#1330=CARTESIAN_POINT('',(0.0187,-0.0026,0.048));
#1331=CARTESIAN_POINT('',(0.0187,-0.0026,0.048));
#1332=CARTESIAN_POINT('',(0.0187,0.0267088011176025,0.048));
#1333=CARTESIAN_POINT('',(0.062486791973584,-0.0026,0.048));
#1334=CARTESIAN_POINT('',(0.106273583947168,-0.0026,0.048));
#1335=CARTESIAN_POINT('',(0.106273583947168,-0.0026,0.048));
#1336=CARTESIAN_POINT('',(0.062486791973584,-0.0026,0.048));
#1337=CARTESIAN_POINT('',(0.106273583947168,0.0267088011176025,0.048));
#1338=CARTESIAN_POINT('',(0.106273583947168,0.056017602235205,0.048));
#1339=CARTESIAN_POINT('',(0.106273583947168,0.056017602235205,0.048));
#1340=CARTESIAN_POINT('',(0.106273583947168,0.0267088011176025,0.048));
#1341=CARTESIAN_POINT('',(0.062486791973584,0.056017602235205,0.048));
#1342=CARTESIAN_POINT('',(0.0187,0.056017602235205,0.048));
#1343=CARTESIAN_POINT('',(0.0187,0.056017602235205,0.048));
#1344=CARTESIAN_POINT('',(0.062486791973584,0.056017602235205,0.048));
#1345=CARTESIAN_POINT('',(0.0187,0.0267088011176025,0.048));
#1346=CARTESIAN_POINT('',(0.0187,0.0267088011176025,0.048));
#1347=CARTESIAN_POINT('',(0.062486791973584,0.0267088011176025,0.048));
#1348=MECHANICAL_DESIGN_GEOMETRIC_PRESENTATION_REPRESENTATION('',(#795),
#1349);
#1349=(
GEOMETRIC_REPRESENTATION_CONTEXT(3)
GLOBAL_UNCERTAINTY_ASSIGNED_CONTEXT((#1350))
GLOBAL_UNIT_ASSIGNED_CONTEXT((#1353,#1352,#1351))
REPRESENTATION_CONTEXT('Part 191','TOP_LEVEL_ASSEMBLY_PART')
);
#1350=UNCERTAINTY_MEASURE_WITH_UNIT(LENGTH_MEASURE(1.E-8),#1353,
'DISTANCE_ACCURACY_VALUE','Maximum Tolerance applied to model');
#1351=(
NAMED_UNIT(*)
SI_UNIT($,.STERADIAN.)
SOLID_ANGLE_UNIT()
);
#1352=(
NAMED_UNIT(*)
PLANE_ANGLE_UNIT()
SI_UNIT($,.RADIAN.)
);
#1353=(
LENGTH_UNIT()
NAMED_UNIT(*)
SI_UNIT($,.METRE.)
);
#1354=PRODUCT_DEFINITION_SHAPE('','',#1355);
#1355=PRODUCT_DEFINITION('','',#1357,#1356);
#1356=PRODUCT_DEFINITION_CONTEXT('',#1363,'design');
#1357=PRODUCT_DEFINITION_FORMATION_WITH_SPECIFIED_SOURCE('','',#1359,
 .NOT_KNOWN.);
#1358=PRODUCT_RELATED_PRODUCT_CATEGORY('','',(#1359));
#1359=PRODUCT('Part 191','Part 191','Part 191',(#1361));
#1360=PRODUCT_CATEGORY('','');
#1361=PRODUCT_CONTEXT('',#1363,'mechanical');
#1362=APPLICATION_PROTOCOL_DEFINITION('international standard',
'ap242_managed_model_based_3d_engineering',2020,#1363);
#1363=APPLICATION_CONTEXT('managed model based 3d engineering');
ENDSEC;
END-ISO-10303-21;
