ISO-10303-21;
HEADER;
/* Generated by software containing ST-Developer
 * from STEP Tools, Inc. (www.steptools.com) 
 */
/* OPTION: using custom renumber hook */

FILE_DESCRIPTION(
/* description */ ('STEP AP242 Edition 2',
'CAx-IF Rec.Pracs.---Representation and Presentation of Product Manufa
cturing Information (PMI)---4.0---2014-10-13',
'CAx-IF Rec.Pracs.---3D Tessellated Geometry---0.4---2014-09-14','2;1',
'CAx-IF Rec.Pracs.---User Defined Attributes---1.5---2016-08-15'),
/* implementation_level */ '2;1');

FILE_NAME(
/* name */ 'Kinetix_Enclosure - Part 2',
/* time_stamp */ '2026-09-08T01:17:43Z',
/* author */ (''),
/* organization */ (''),
/* preprocessor_version */ 'ST-DEVELOPER v20',
/* originating_system */ 'ONSHAPE BY PTC INC, 1.220',
/* authorisation */ '  ');

FILE_SCHEMA (('AP242_MANAGED_MODEL_BASED_3D_ENGINEERING_MIM_LF { 1 0 10303 442 3 1 4 }'));
ENDSEC;

DATA;
#10=SHAPE_REPRESENTATION_RELATIONSHIP('','',#545,#11);
#11=ADVANCED_BREP_SHAPE_REPRESENTATION('',(#543),#915);
#12=CYLINDRICAL_SURFACE('',#570,0.0016);
#13=CYLINDRICAL_SURFACE('',#573,0.003);
#14=CYLINDRICAL_SURFACE('',#577,0.0016);
#15=CYLINDRICAL_SURFACE('',#580,0.003);
#16=CYLINDRICAL_SURFACE('',#584,0.0016);
#17=CYLINDRICAL_SURFACE('',#587,0.003);
#18=CYLINDRICAL_SURFACE('',#591,0.0016);
#19=CYLINDRICAL_SURFACE('',#594,0.003);
#20=CYLINDRICAL_SURFACE('',#602,0.005);
#21=CYLINDRICAL_SURFACE('',#603,0.005);
#22=CYLINDRICAL_SURFACE('',#604,0.005);
#23=CYLINDRICAL_SURFACE('',#605,0.005);
#24=CIRCLE('',#550,0.005);
#25=CIRCLE('',#551,0.005);
#26=CIRCLE('',#552,0.005);
#27=CIRCLE('',#553,0.005);
#28=CIRCLE('',#561,0.005);
#29=CIRCLE('',#562,0.005);
#30=CIRCLE('',#563,0.005);
#31=CIRCLE('',#564,0.005);
#32=CIRCLE('',#566,0.003);
#33=CIRCLE('',#567,0.003);
#34=CIRCLE('',#568,0.003);
#35=CIRCLE('',#569,0.003);
#36=CIRCLE('',#571,0.0016);
#37=CIRCLE('',#572,0.0016);
#38=CIRCLE('',#574,0.003);
#39=CIRCLE('',#578,0.0016);
#40=CIRCLE('',#579,0.0016);
#41=CIRCLE('',#581,0.003);
#42=CIRCLE('',#585,0.0016);
#43=CIRCLE('',#586,0.0016);
#44=CIRCLE('',#588,0.003);
#45=CIRCLE('',#592,0.0016);
#46=CIRCLE('',#593,0.0016);
#47=CIRCLE('',#595,0.003);
#48=ORIENTED_EDGE('',*,*,#176,.F.);
#49=ORIENTED_EDGE('',*,*,#177,.T.);
#50=ORIENTED_EDGE('',*,*,#178,.T.);
#51=ORIENTED_EDGE('',*,*,#179,.F.);
#52=ORIENTED_EDGE('',*,*,#180,.T.);
#53=ORIENTED_EDGE('',*,*,#181,.T.);
#54=ORIENTED_EDGE('',*,*,#182,.F.);
#55=ORIENTED_EDGE('',*,*,#183,.F.);
#56=ORIENTED_EDGE('',*,*,#184,.T.);
#57=ORIENTED_EDGE('',*,*,#185,.T.);
#58=ORIENTED_EDGE('',*,*,#186,.F.);
#59=ORIENTED_EDGE('',*,*,#187,.F.);
#60=ORIENTED_EDGE('',*,*,#188,.F.);
#61=ORIENTED_EDGE('',*,*,#189,.T.);
#62=ORIENTED_EDGE('',*,*,#190,.T.);
#63=ORIENTED_EDGE('',*,*,#191,.T.);
#64=ORIENTED_EDGE('',*,*,#190,.F.);
#65=ORIENTED_EDGE('',*,*,#192,.T.);
#66=ORIENTED_EDGE('',*,*,#193,.F.);
#67=ORIENTED_EDGE('',*,*,#194,.T.);
#68=ORIENTED_EDGE('',*,*,#195,.F.);
#69=ORIENTED_EDGE('',*,*,#196,.T.);
#70=ORIENTED_EDGE('',*,*,#197,.F.);
#71=ORIENTED_EDGE('',*,*,#198,.T.);
#72=ORIENTED_EDGE('',*,*,#199,.T.);
#73=ORIENTED_EDGE('',*,*,#200,.T.);
#74=ORIENTED_EDGE('',*,*,#180,.F.);
#75=ORIENTED_EDGE('',*,*,#201,.F.);
#76=ORIENTED_EDGE('',*,*,#202,.T.);
#77=ORIENTED_EDGE('',*,*,#203,.T.);
#78=ORIENTED_EDGE('',*,*,#199,.F.);
#79=ORIENTED_EDGE('',*,*,#204,.F.);
#80=ORIENTED_EDGE('',*,*,#182,.T.);
#81=ORIENTED_EDGE('',*,*,#205,.T.);
#82=ORIENTED_EDGE('',*,*,#202,.F.);
#83=ORIENTED_EDGE('',*,*,#206,.F.);
#84=ORIENTED_EDGE('',*,*,#195,.T.);
#85=ORIENTED_EDGE('',*,*,#207,.T.);
#86=ORIENTED_EDGE('',*,*,#208,.F.);
#87=ORIENTED_EDGE('',*,*,#209,.T.);
#88=ORIENTED_EDGE('',*,*,#193,.T.);
#89=ORIENTED_EDGE('',*,*,#210,.T.);
#90=ORIENTED_EDGE('',*,*,#211,.F.);
#91=ORIENTED_EDGE('',*,*,#212,.T.);
#92=ORIENTED_EDGE('',*,*,#197,.T.);
#93=ORIENTED_EDGE('',*,*,#213,.T.);
#94=ORIENTED_EDGE('',*,*,#214,.F.);
#95=ORIENTED_EDGE('',*,*,#215,.T.);
#96=ORIENTED_EDGE('',*,*,#211,.T.);
#97=ORIENTED_EDGE('',*,*,#216,.T.);
#98=ORIENTED_EDGE('',*,*,#188,.T.);
#99=ORIENTED_EDGE('',*,*,#217,.T.);
#100=ORIENTED_EDGE('',*,*,#214,.T.);
#101=ORIENTED_EDGE('',*,*,#218,.T.);
#102=ORIENTED_EDGE('',*,*,#208,.T.);
#103=ORIENTED_EDGE('',*,*,#219,.T.);
#104=ORIENTED_EDGE('',*,*,#204,.T.);
#105=ORIENTED_EDGE('',*,*,#201,.T.);
#106=ORIENTED_EDGE('',*,*,#183,.T.);
#107=ORIENTED_EDGE('',*,*,#206,.T.);
#108=ORIENTED_EDGE('',*,*,#220,.F.);
#109=ORIENTED_EDGE('',*,*,#221,.F.);
#110=ORIENTED_EDGE('',*,*,#222,.F.);
#111=ORIENTED_EDGE('',*,*,#223,.F.);
#112=ORIENTED_EDGE('',*,*,#200,.F.);
#113=ORIENTED_EDGE('',*,*,#203,.F.);
#114=ORIENTED_EDGE('',*,*,#205,.F.);
#115=ORIENTED_EDGE('',*,*,#181,.F.);
#116=ORIENTED_EDGE('',*,*,#224,.T.);
#117=ORIENTED_EDGE('',*,*,#225,.T.);
#118=ORIENTED_EDGE('',*,*,#226,.F.);
#119=ORIENTED_EDGE('',*,*,#223,.T.);
#120=ORIENTED_EDGE('',*,*,#224,.F.);
#121=ORIENTED_EDGE('',*,*,#226,.T.);
#122=ORIENTED_EDGE('',*,*,#225,.F.);
#123=ORIENTED_EDGE('',*,*,#227,.T.);
#124=ORIENTED_EDGE('',*,*,#228,.T.);
#125=ORIENTED_EDGE('',*,*,#229,.F.);
#126=ORIENTED_EDGE('',*,*,#222,.T.);
#127=ORIENTED_EDGE('',*,*,#227,.F.);
#128=ORIENTED_EDGE('',*,*,#229,.T.);
#129=ORIENTED_EDGE('',*,*,#228,.F.);
#130=ORIENTED_EDGE('',*,*,#230,.T.);
#131=ORIENTED_EDGE('',*,*,#231,.T.);
#132=ORIENTED_EDGE('',*,*,#232,.F.);
#133=ORIENTED_EDGE('',*,*,#221,.T.);
#134=ORIENTED_EDGE('',*,*,#230,.F.);
#135=ORIENTED_EDGE('',*,*,#232,.T.);
#136=ORIENTED_EDGE('',*,*,#231,.F.);
#137=ORIENTED_EDGE('',*,*,#233,.T.);
#138=ORIENTED_EDGE('',*,*,#234,.T.);
#139=ORIENTED_EDGE('',*,*,#235,.F.);
#140=ORIENTED_EDGE('',*,*,#220,.T.);
#141=ORIENTED_EDGE('',*,*,#233,.F.);
#142=ORIENTED_EDGE('',*,*,#235,.T.);
#143=ORIENTED_EDGE('',*,*,#234,.F.);
#144=ORIENTED_EDGE('',*,*,#185,.F.);
#145=ORIENTED_EDGE('',*,*,#236,.T.);
#146=ORIENTED_EDGE('',*,*,#179,.T.);
#147=ORIENTED_EDGE('',*,*,#237,.F.);
#148=ORIENTED_EDGE('',*,*,#187,.T.);
#149=ORIENTED_EDGE('',*,*,#238,.T.);
#150=ORIENTED_EDGE('',*,*,#177,.F.);
#151=ORIENTED_EDGE('',*,*,#239,.F.);
#152=ORIENTED_EDGE('',*,*,#186,.T.);
#153=ORIENTED_EDGE('',*,*,#237,.T.);
#154=ORIENTED_EDGE('',*,*,#178,.F.);
#155=ORIENTED_EDGE('',*,*,#238,.F.);
#156=ORIENTED_EDGE('',*,*,#184,.F.);
#157=ORIENTED_EDGE('',*,*,#239,.T.);
#158=ORIENTED_EDGE('',*,*,#176,.T.);
#159=ORIENTED_EDGE('',*,*,#236,.F.);
#160=ORIENTED_EDGE('',*,*,#216,.F.);
#161=ORIENTED_EDGE('',*,*,#210,.F.);
#162=ORIENTED_EDGE('',*,*,#192,.F.);
#163=ORIENTED_EDGE('',*,*,#189,.F.);
#164=ORIENTED_EDGE('',*,*,#219,.F.);
#165=ORIENTED_EDGE('',*,*,#207,.F.);
#166=ORIENTED_EDGE('',*,*,#194,.F.);
#167=ORIENTED_EDGE('',*,*,#212,.F.);
#168=ORIENTED_EDGE('',*,*,#218,.F.);
#169=ORIENTED_EDGE('',*,*,#213,.F.);
#170=ORIENTED_EDGE('',*,*,#196,.F.);
#171=ORIENTED_EDGE('',*,*,#209,.F.);
#172=ORIENTED_EDGE('',*,*,#217,.F.);
#173=ORIENTED_EDGE('',*,*,#191,.F.);
#174=ORIENTED_EDGE('',*,*,#198,.F.);
#175=ORIENTED_EDGE('',*,*,#215,.F.);
#176=EDGE_CURVE('',#240,#241,#288,.T.);
#177=EDGE_CURVE('',#240,#242,#289,.T.);
#178=EDGE_CURVE('',#242,#243,#290,.T.);
#179=EDGE_CURVE('',#241,#243,#291,.T.);
#180=EDGE_CURVE('',#244,#245,#292,.T.);
#181=EDGE_CURVE('',#245,#246,#293,.T.);
#182=EDGE_CURVE('',#247,#246,#294,.T.);
#183=EDGE_CURVE('',#244,#247,#295,.T.);
#184=EDGE_CURVE('',#248,#249,#296,.T.);
#185=EDGE_CURVE('',#249,#250,#297,.T.);
#186=EDGE_CURVE('',#251,#250,#298,.T.);
#187=EDGE_CURVE('',#248,#251,#299,.T.);
#188=EDGE_CURVE('',#252,#253,#300,.T.);
#189=EDGE_CURVE('',#252,#254,#301,.T.);
#190=EDGE_CURVE('',#254,#255,#302,.T.);
#191=EDGE_CURVE('',#255,#253,#303,.F.);
#192=EDGE_CURVE('',#254,#256,#24,.F.);
#193=EDGE_CURVE('',#257,#256,#304,.T.);
#194=EDGE_CURVE('',#257,#258,#25,.F.);
#195=EDGE_CURVE('',#259,#258,#305,.T.);
#196=EDGE_CURVE('',#259,#260,#26,.F.);
#197=EDGE_CURVE('',#261,#260,#306,.T.);
#198=EDGE_CURVE('',#261,#255,#27,.F.);
#199=EDGE_CURVE('',#262,#263,#307,.T.);
#200=EDGE_CURVE('',#263,#245,#308,.T.);
#201=EDGE_CURVE('',#262,#244,#309,.T.);
#202=EDGE_CURVE('',#264,#265,#310,.T.);
#203=EDGE_CURVE('',#265,#263,#311,.T.);
#204=EDGE_CURVE('',#264,#262,#312,.T.);
#205=EDGE_CURVE('',#246,#265,#313,.T.);
#206=EDGE_CURVE('',#247,#264,#314,.T.);
#207=EDGE_CURVE('',#258,#266,#315,.F.);
#208=EDGE_CURVE('',#267,#266,#316,.T.);
#209=EDGE_CURVE('',#267,#259,#317,.T.);
#210=EDGE_CURVE('',#256,#268,#318,.F.);
#211=EDGE_CURVE('',#269,#268,#319,.T.);
#212=EDGE_CURVE('',#269,#257,#320,.T.);
#213=EDGE_CURVE('',#260,#270,#321,.F.);
#214=EDGE_CURVE('',#271,#270,#322,.T.);
#215=EDGE_CURVE('',#271,#261,#323,.T.);
#216=EDGE_CURVE('',#268,#252,#28,.T.);
#217=EDGE_CURVE('',#253,#271,#29,.T.);
#218=EDGE_CURVE('',#270,#267,#30,.T.);
#219=EDGE_CURVE('',#266,#269,#31,.T.);
#220=EDGE_CURVE('',#272,#272,#32,.T.);
#221=EDGE_CURVE('',#273,#273,#33,.T.);
#222=EDGE_CURVE('',#274,#274,#34,.T.);
#223=EDGE_CURVE('',#275,#275,#35,.T.);
#224=EDGE_CURVE('',#276,#276,#36,.T.);
#225=EDGE_CURVE('',#277,#277,#37,.F.);
#226=EDGE_CURVE('',#278,#278,#38,.T.);
#227=EDGE_CURVE('',#279,#279,#39,.T.);
#228=EDGE_CURVE('',#280,#280,#40,.F.);
#229=EDGE_CURVE('',#281,#281,#41,.T.);
#230=EDGE_CURVE('',#282,#282,#42,.T.);
#231=EDGE_CURVE('',#283,#283,#43,.F.);
#232=EDGE_CURVE('',#284,#284,#44,.T.);
#233=EDGE_CURVE('',#285,#285,#45,.T.);
#234=EDGE_CURVE('',#286,#286,#46,.F.);
#235=EDGE_CURVE('',#287,#287,#47,.T.);
#236=EDGE_CURVE('',#249,#241,#324,.T.);
#237=EDGE_CURVE('',#250,#243,#325,.T.);
#238=EDGE_CURVE('',#251,#242,#326,.T.);
#239=EDGE_CURVE('',#248,#240,#327,.T.);
#240=VERTEX_POINT('',#769);
#241=VERTEX_POINT('',#770);
#242=VERTEX_POINT('',#772);
#243=VERTEX_POINT('',#774);
#244=VERTEX_POINT('',#777);
#245=VERTEX_POINT('',#778);
#246=VERTEX_POINT('',#780);
#247=VERTEX_POINT('',#782);
#248=VERTEX_POINT('',#786);
#249=VERTEX_POINT('',#787);
#250=VERTEX_POINT('',#789);
#251=VERTEX_POINT('',#791);
#252=VERTEX_POINT('',#794);
#253=VERTEX_POINT('',#795);
#254=VERTEX_POINT('',#797);
#255=VERTEX_POINT('',#799);
#256=VERTEX_POINT('',#803);
#257=VERTEX_POINT('',#805);
#258=VERTEX_POINT('',#807);
#259=VERTEX_POINT('',#809);
#260=VERTEX_POINT('',#811);
#261=VERTEX_POINT('',#813);
#262=VERTEX_POINT('',#817);
#263=VERTEX_POINT('',#818);
#264=VERTEX_POINT('',#823);
#265=VERTEX_POINT('',#824);
#266=VERTEX_POINT('',#832);
#267=VERTEX_POINT('',#834);
#268=VERTEX_POINT('',#838);
#269=VERTEX_POINT('',#840);
#270=VERTEX_POINT('',#844);
#271=VERTEX_POINT('',#846);
#272=VERTEX_POINT('',#855);
#273=VERTEX_POINT('',#857);
#274=VERTEX_POINT('',#859);
#275=VERTEX_POINT('',#861);
#276=VERTEX_POINT('',#864);
#277=VERTEX_POINT('',#866);
#278=VERTEX_POINT('',#869);
#279=VERTEX_POINT('',#874);
#280=VERTEX_POINT('',#876);
#281=VERTEX_POINT('',#879);
#282=VERTEX_POINT('',#884);
#283=VERTEX_POINT('',#886);
#284=VERTEX_POINT('',#889);
#285=VERTEX_POINT('',#894);
#286=VERTEX_POINT('',#896);
#287=VERTEX_POINT('',#899);
#288=LINE('',#768,#328);
#289=LINE('',#771,#329);
#290=LINE('',#773,#330);
#291=LINE('',#775,#331);
#292=LINE('',#776,#332);
#293=LINE('',#779,#333);
#294=LINE('',#781,#334);
#295=LINE('',#783,#335);
#296=LINE('',#785,#336);
#297=LINE('',#788,#337);
#298=LINE('',#790,#338);
#299=LINE('',#792,#339);
#300=LINE('',#793,#340);
#301=LINE('',#796,#341);
#302=LINE('',#798,#342);
#303=LINE('',#800,#343);
#304=LINE('',#804,#344);
#305=LINE('',#808,#345);
#306=LINE('',#812,#346);
#307=LINE('',#816,#347);
#308=LINE('',#819,#348);
#309=LINE('',#820,#349);
#310=LINE('',#822,#350);
#311=LINE('',#825,#351);
#312=LINE('',#826,#352);
#313=LINE('',#828,#353);
#314=LINE('',#829,#354);
#315=LINE('',#831,#355);
#316=LINE('',#833,#356);
#317=LINE('',#835,#357);
#318=LINE('',#837,#358);
#319=LINE('',#839,#359);
#320=LINE('',#841,#360);
#321=LINE('',#843,#361);
#322=LINE('',#845,#362);
#323=LINE('',#847,#363);
#324=LINE('',#903,#364);
#325=LINE('',#904,#365);
#326=LINE('',#906,#366);
#327=LINE('',#907,#367);
#328=VECTOR('',#610,1.);
#329=VECTOR('',#611,1.);
#330=VECTOR('',#612,1.);
#331=VECTOR('',#613,1.);
#332=VECTOR('',#614,1.);
#333=VECTOR('',#615,1.);
#334=VECTOR('',#616,1.);
#335=VECTOR('',#617,1.);
#336=VECTOR('',#620,1.);
#337=VECTOR('',#621,1.);
#338=VECTOR('',#622,1.);
#339=VECTOR('',#623,1.);
#340=VECTOR('',#624,1.);
#341=VECTOR('',#625,1.);
#342=VECTOR('',#626,1.);
#343=VECTOR('',#627,1.);
#344=VECTOR('',#632,1.);
#345=VECTOR('',#635,1.);
#346=VECTOR('',#638,1.);
#347=VECTOR('',#643,1.);
#348=VECTOR('',#644,1.);
#349=VECTOR('',#645,1.);
#350=VECTOR('',#648,1.);
#351=VECTOR('',#649,1.);
#352=VECTOR('',#650,1.);
#353=VECTOR('',#653,1.);
#354=VECTOR('',#654,1.);
#355=VECTOR('',#657,1.);
#356=VECTOR('',#658,1.);
#357=VECTOR('',#659,1.);
#358=VECTOR('',#662,1.);
#359=VECTOR('',#663,1.);
#360=VECTOR('',#664,1.);
#361=VECTOR('',#667,1.);
#362=VECTOR('',#668,1.);
#363=VECTOR('',#669,1.);
#364=VECTOR('',#748,1.);
#365=VECTOR('',#749,1.);
#366=VECTOR('',#752,1.);
#367=VECTOR('',#753,1.);
#368=EDGE_LOOP('',(#48,#49,#50,#51));
#369=EDGE_LOOP('',(#52,#53,#54,#55));
#370=EDGE_LOOP('',(#56,#57,#58,#59));
#371=EDGE_LOOP('',(#60,#61,#62,#63));
#372=EDGE_LOOP('',(#64,#65,#66,#67,#68,#69,#70,#71));
#373=EDGE_LOOP('',(#72,#73,#74,#75));
#374=EDGE_LOOP('',(#76,#77,#78,#79));
#375=EDGE_LOOP('',(#80,#81,#82,#83));
#376=EDGE_LOOP('',(#84,#85,#86,#87));
#377=EDGE_LOOP('',(#88,#89,#90,#91));
#378=EDGE_LOOP('',(#92,#93,#94,#95));
#379=EDGE_LOOP('',(#96,#97,#98,#99,#100,#101,#102,#103));
#380=EDGE_LOOP('',(#104,#105,#106,#107));
#381=EDGE_LOOP('',(#108));
#382=EDGE_LOOP('',(#109));
#383=EDGE_LOOP('',(#110));
#384=EDGE_LOOP('',(#111));
#385=EDGE_LOOP('',(#112,#113,#114,#115));
#386=EDGE_LOOP('',(#116));
#387=EDGE_LOOP('',(#117));
#388=EDGE_LOOP('',(#118));
#389=EDGE_LOOP('',(#119));
#390=EDGE_LOOP('',(#120));
#391=EDGE_LOOP('',(#121));
#392=EDGE_LOOP('',(#122));
#393=EDGE_LOOP('',(#123));
#394=EDGE_LOOP('',(#124));
#395=EDGE_LOOP('',(#125));
#396=EDGE_LOOP('',(#126));
#397=EDGE_LOOP('',(#127));
#398=EDGE_LOOP('',(#128));
#399=EDGE_LOOP('',(#129));
#400=EDGE_LOOP('',(#130));
#401=EDGE_LOOP('',(#131));
#402=EDGE_LOOP('',(#132));
#403=EDGE_LOOP('',(#133));
#404=EDGE_LOOP('',(#134));
#405=EDGE_LOOP('',(#135));
#406=EDGE_LOOP('',(#136));
#407=EDGE_LOOP('',(#137));
#408=EDGE_LOOP('',(#138));
#409=EDGE_LOOP('',(#139));
#410=EDGE_LOOP('',(#140));
#411=EDGE_LOOP('',(#141));
#412=EDGE_LOOP('',(#142));
#413=EDGE_LOOP('',(#143));
#414=EDGE_LOOP('',(#144,#145,#146,#147));
#415=EDGE_LOOP('',(#148,#149,#150,#151));
#416=EDGE_LOOP('',(#152,#153,#154,#155));
#417=EDGE_LOOP('',(#156,#157,#158,#159));
#418=EDGE_LOOP('',(#160,#161,#162,#163));
#419=EDGE_LOOP('',(#164,#165,#166,#167));
#420=EDGE_LOOP('',(#168,#169,#170,#171));
#421=EDGE_LOOP('',(#172,#173,#174,#175));
#422=FACE_BOUND('',#368,.T.);
#423=FACE_BOUND('',#369,.T.);
#424=FACE_BOUND('',#370,.T.);
#425=FACE_BOUND('',#371,.T.);
#426=FACE_BOUND('',#372,.T.);
#427=FACE_BOUND('',#373,.T.);
#428=FACE_BOUND('',#374,.T.);
#429=FACE_BOUND('',#375,.T.);
#430=FACE_BOUND('',#376,.T.);
#431=FACE_BOUND('',#377,.T.);
#432=FACE_BOUND('',#378,.T.);
#433=FACE_BOUND('',#379,.T.);
#434=FACE_BOUND('',#380,.T.);
#435=FACE_BOUND('',#381,.T.);
#436=FACE_BOUND('',#382,.T.);
#437=FACE_BOUND('',#383,.T.);
#438=FACE_BOUND('',#384,.T.);
#439=FACE_BOUND('',#385,.T.);
#440=FACE_BOUND('',#386,.T.);
#441=FACE_BOUND('',#387,.T.);
#442=FACE_BOUND('',#388,.T.);
#443=FACE_BOUND('',#389,.T.);
#444=FACE_BOUND('',#390,.T.);
#445=FACE_BOUND('',#391,.T.);
#446=FACE_BOUND('',#392,.T.);
#447=FACE_BOUND('',#393,.T.);
#448=FACE_BOUND('',#394,.T.);
#449=FACE_BOUND('',#395,.T.);
#450=FACE_BOUND('',#396,.T.);
#451=FACE_BOUND('',#397,.T.);
#452=FACE_BOUND('',#398,.T.);
#453=FACE_BOUND('',#399,.T.);
#454=FACE_BOUND('',#400,.T.);
#455=FACE_BOUND('',#401,.T.);
#456=FACE_BOUND('',#402,.T.);
#457=FACE_BOUND('',#403,.T.);
#458=FACE_BOUND('',#404,.T.);
#459=FACE_BOUND('',#405,.T.);
#460=FACE_BOUND('',#406,.T.);
#461=FACE_BOUND('',#407,.T.);
#462=FACE_BOUND('',#408,.T.);
#463=FACE_BOUND('',#409,.T.);
#464=FACE_BOUND('',#410,.T.);
#465=FACE_BOUND('',#411,.T.);
#466=FACE_BOUND('',#412,.T.);
#467=FACE_BOUND('',#413,.T.);
#468=FACE_BOUND('',#414,.T.);
#469=FACE_BOUND('',#415,.T.);
#470=FACE_BOUND('',#416,.T.);
#471=FACE_BOUND('',#417,.T.);
#472=FACE_BOUND('',#418,.T.);
#473=FACE_BOUND('',#419,.T.);
#474=FACE_BOUND('',#420,.T.);
#475=FACE_BOUND('',#421,.T.);
#476=PLANE('',#547);
#477=PLANE('',#548);
#478=PLANE('',#549);
#479=PLANE('',#554);
#480=PLANE('',#555);
#481=PLANE('',#556);
#482=PLANE('',#557);
#483=PLANE('',#558);
#484=PLANE('',#559);
#485=PLANE('',#560);
#486=PLANE('',#565);
#487=PLANE('',#575);
#488=PLANE('',#576);
#489=PLANE('',#582);
#490=PLANE('',#583);
#491=PLANE('',#589);
#492=PLANE('',#590);
#493=PLANE('',#596);
#494=PLANE('',#597);
#495=PLANE('',#598);
#496=PLANE('',#599);
#497=PLANE('',#600);
#498=PLANE('',#601);
#499=ADVANCED_FACE('',(#422,#423),#476,.F.);
#500=ADVANCED_FACE('',(#424,#425),#477,.F.);
#501=ADVANCED_FACE('',(#426),#478,.F.);
#502=ADVANCED_FACE('',(#427),#479,.F.);
#503=ADVANCED_FACE('',(#428),#480,.F.);
#504=ADVANCED_FACE('',(#429),#481,.F.);
#505=ADVANCED_FACE('',(#430),#482,.F.);
#506=ADVANCED_FACE('',(#431),#483,.F.);
#507=ADVANCED_FACE('',(#432),#484,.F.);
#508=ADVANCED_FACE('',(#433,#434),#485,.T.);
#509=ADVANCED_FACE('',(#435,#436,#437,#438,#439),#486,.T.);
#510=ADVANCED_FACE('',(#440,#441),#12,.F.);
#511=ADVANCED_FACE('',(#442,#443),#13,.T.);
#512=ADVANCED_FACE('',(#444,#445),#487,.T.);
#513=ADVANCED_FACE('',(#446),#488,.T.);
#514=ADVANCED_FACE('',(#447,#448),#14,.F.);
#515=ADVANCED_FACE('',(#449,#450),#15,.T.);
#516=ADVANCED_FACE('',(#451,#452),#489,.T.);
#517=ADVANCED_FACE('',(#453),#490,.T.);
#518=ADVANCED_FACE('',(#454,#455),#16,.F.);
#519=ADVANCED_FACE('',(#456,#457),#17,.T.);
#520=ADVANCED_FACE('',(#458,#459),#491,.T.);
#521=ADVANCED_FACE('',(#460),#492,.T.);
#522=ADVANCED_FACE('',(#461,#462),#18,.F.);
#523=ADVANCED_FACE('',(#463,#464),#19,.T.);
#524=ADVANCED_FACE('',(#465,#466),#493,.T.);
#525=ADVANCED_FACE('',(#467),#494,.T.);
#526=ADVANCED_FACE('',(#468),#495,.F.);
#527=ADVANCED_FACE('',(#469),#496,.T.);
#528=ADVANCED_FACE('',(#470),#497,.T.);
#529=ADVANCED_FACE('',(#471),#498,.F.);
#530=ADVANCED_FACE('',(#472),#20,.T.);
#531=ADVANCED_FACE('',(#473),#21,.T.);
#532=ADVANCED_FACE('',(#474),#22,.T.);
#533=ADVANCED_FACE('',(#475),#23,.T.);
#534=CLOSED_SHELL('',(#499,#500,#501,#502,#503,#504,#505,#506,#507,#508,
#509,#510,#511,#512,#513,#514,#515,#516,#517,#518,#519,#520,#521,#522,#523,
#524,#525,#526,#527,#528,#529,#530,#531,#532,#533));
#535=STYLED_ITEM('',(#536),#543);
#536=PRESENTATION_STYLE_ASSIGNMENT((#537));
#537=SURFACE_STYLE_USAGE(.BOTH.,#538);
#538=SURFACE_SIDE_STYLE('',(#539));
#539=SURFACE_STYLE_FILL_AREA(#540);
#540=FILL_AREA_STYLE('',(#541));
#541=FILL_AREA_STYLE_COLOUR('',#542);
#542=COLOUR_RGB('',0.231372549019608,0.380392156862745,0.705882352941177);
#543=MANIFOLD_SOLID_BREP('Part 2',#534);
#544=SHAPE_DEFINITION_REPRESENTATION(#920,#545);
#545=SHAPE_REPRESENTATION('Part 2',(#546),#915);
#546=AXIS2_PLACEMENT_3D('',#766,#606,#607);
#547=AXIS2_PLACEMENT_3D('',#767,#608,#609);
#548=AXIS2_PLACEMENT_3D('',#784,#618,#619);
#549=AXIS2_PLACEMENT_3D('',#801,#628,#629);
#550=AXIS2_PLACEMENT_3D('',#802,#630,#631);
#551=AXIS2_PLACEMENT_3D('',#806,#633,#634);
#552=AXIS2_PLACEMENT_3D('',#810,#636,#637);
#553=AXIS2_PLACEMENT_3D('',#814,#639,#640);
#554=AXIS2_PLACEMENT_3D('',#815,#641,#642);
#555=AXIS2_PLACEMENT_3D('',#821,#646,#647);
#556=AXIS2_PLACEMENT_3D('',#827,#651,#652);
#557=AXIS2_PLACEMENT_3D('',#830,#655,#656);
#558=AXIS2_PLACEMENT_3D('',#836,#660,#661);
#559=AXIS2_PLACEMENT_3D('',#842,#665,#666);
#560=AXIS2_PLACEMENT_3D('',#848,#670,#671);
#561=AXIS2_PLACEMENT_3D('',#849,#672,#673);
#562=AXIS2_PLACEMENT_3D('',#850,#674,#675);
#563=AXIS2_PLACEMENT_3D('',#851,#676,#677);
#564=AXIS2_PLACEMENT_3D('',#852,#678,#679);
#565=AXIS2_PLACEMENT_3D('',#853,#680,#681);
#566=AXIS2_PLACEMENT_3D('',#854,#682,#683);
#567=AXIS2_PLACEMENT_3D('',#856,#684,#685);
#568=AXIS2_PLACEMENT_3D('',#858,#686,#687);
#569=AXIS2_PLACEMENT_3D('',#860,#688,#689);
#570=AXIS2_PLACEMENT_3D('',#862,#690,#691);
#571=AXIS2_PLACEMENT_3D('',#863,#692,#693);
#572=AXIS2_PLACEMENT_3D('',#865,#694,#695);
#573=AXIS2_PLACEMENT_3D('',#867,#696,#697);
#574=AXIS2_PLACEMENT_3D('',#868,#698,#699);
#575=AXIS2_PLACEMENT_3D('',#870,#700,#701);
#576=AXIS2_PLACEMENT_3D('',#871,#702,#703);
#577=AXIS2_PLACEMENT_3D('',#872,#704,#705);
#578=AXIS2_PLACEMENT_3D('',#873,#706,#707);
#579=AXIS2_PLACEMENT_3D('',#875,#708,#709);
#580=AXIS2_PLACEMENT_3D('',#877,#710,#711);
#581=AXIS2_PLACEMENT_3D('',#878,#712,#713);
#582=AXIS2_PLACEMENT_3D('',#880,#714,#715);
#583=AXIS2_PLACEMENT_3D('',#881,#716,#717);
#584=AXIS2_PLACEMENT_3D('',#882,#718,#719);
#585=AXIS2_PLACEMENT_3D('',#883,#720,#721);
#586=AXIS2_PLACEMENT_3D('',#885,#722,#723);
#587=AXIS2_PLACEMENT_3D('',#887,#724,#725);
#588=AXIS2_PLACEMENT_3D('',#888,#726,#727);
#589=AXIS2_PLACEMENT_3D('',#890,#728,#729);
#590=AXIS2_PLACEMENT_3D('',#891,#730,#731);
#591=AXIS2_PLACEMENT_3D('',#892,#732,#733);
#592=AXIS2_PLACEMENT_3D('',#893,#734,#735);
#593=AXIS2_PLACEMENT_3D('',#895,#736,#737);
#594=AXIS2_PLACEMENT_3D('',#897,#738,#739);
#595=AXIS2_PLACEMENT_3D('',#898,#740,#741);
#596=AXIS2_PLACEMENT_3D('',#900,#742,#743);
#597=AXIS2_PLACEMENT_3D('',#901,#744,#745);
#598=AXIS2_PLACEMENT_3D('',#902,#746,#747);
#599=AXIS2_PLACEMENT_3D('',#905,#750,#751);
#600=AXIS2_PLACEMENT_3D('',#908,#754,#755);
#601=AXIS2_PLACEMENT_3D('',#909,#756,#757);
#602=AXIS2_PLACEMENT_3D('',#910,#758,#759);
#603=AXIS2_PLACEMENT_3D('',#911,#760,#761);
#604=AXIS2_PLACEMENT_3D('',#912,#762,#763);
#605=AXIS2_PLACEMENT_3D('',#913,#764,#765);
#606=DIRECTION('',(0.,0.,1.));
#607=DIRECTION('',(1.,0.,0.));
#608=DIRECTION('',(0.,-1.,0.));
#609=DIRECTION('',(0.,0.,-1.));
#610=DIRECTION('',(-1.,0.,0.));
#611=DIRECTION('',(0.,0.,1.));
#612=DIRECTION('',(-1.,0.,0.));
#613=DIRECTION('',(0.,0.,1.));
#614=DIRECTION('',(0.,0.,-1.));
#615=DIRECTION('',(-1.,0.,0.));
#616=DIRECTION('',(0.,0.,-1.));
#617=DIRECTION('',(-1.,0.,0.));
#618=DIRECTION('',(0.,1.,0.));
#619=DIRECTION('',(0.,0.,1.));
#620=DIRECTION('',(-1.,0.,0.));
#621=DIRECTION('',(0.,0.,1.));
#622=DIRECTION('',(-1.,0.,0.));
#623=DIRECTION('',(0.,0.,1.));
#624=DIRECTION('',(1.,0.,0.));
#625=DIRECTION('',(0.,0.,-1.));
#626=DIRECTION('',(1.,0.,0.));
#627=DIRECTION('',(0.,0.,-1.));
#628=DIRECTION('',(0.,0.,1.));
#629=DIRECTION('',(1.,0.,0.));
#630=DIRECTION('',(0.,0.,1.));
#631=DIRECTION('',(1.,0.,0.));
#632=DIRECTION('',(-2.52810273088614E-17,-1.,0.));
#633=DIRECTION('',(0.,0.,1.));
#634=DIRECTION('',(1.,0.,0.));
#635=DIRECTION('',(-1.,0.,0.));
#636=DIRECTION('',(0.,0.,1.));
#637=DIRECTION('',(1.,0.,0.));
#638=DIRECTION('',(0.,1.,0.));
#639=DIRECTION('',(0.,0.,1.));
#640=DIRECTION('',(1.,0.,0.));
#641=DIRECTION('',(1.,0.,0.));
#642=DIRECTION('',(0.,0.,-1.));
#643=DIRECTION('',(0.,0.,-1.));
#644=DIRECTION('',(0.,-1.,0.));
#645=DIRECTION('',(0.,-1.,0.));
#646=DIRECTION('',(0.,1.,0.));
#647=DIRECTION('',(0.,0.,1.));
#648=DIRECTION('',(0.,0.,-1.));
#649=DIRECTION('',(1.,0.,0.));
#650=DIRECTION('',(1.,0.,0.));
#651=DIRECTION('',(-1.,0.,0.));
#652=DIRECTION('',(0.,0.,1.));
#653=DIRECTION('',(0.,1.,0.));
#654=DIRECTION('',(0.,1.,0.));
#655=DIRECTION('',(0.,-1.,0.));
#656=DIRECTION('',(0.,0.,-1.));
#657=DIRECTION('',(0.,0.,-1.));
#658=DIRECTION('',(-1.,0.,0.));
#659=DIRECTION('',(0.,0.,-1.));
#660=DIRECTION('',(1.,-2.52810273088614E-17,0.));
#661=DIRECTION('',(2.52810273088614E-17,1.,0.));
#662=DIRECTION('',(0.,0.,-1.));
#663=DIRECTION('',(-2.52810273088614E-17,-1.,0.));
#664=DIRECTION('',(0.,0.,-1.));
#665=DIRECTION('',(-1.,0.,0.));
#666=DIRECTION('',(0.,0.,1.));
#667=DIRECTION('',(0.,0.,-1.));
#668=DIRECTION('',(0.,1.,0.));
#669=DIRECTION('',(0.,0.,-1.));
#670=DIRECTION('',(0.,0.,1.));
#671=DIRECTION('',(1.,0.,0.));
#672=DIRECTION('',(0.,0.,1.));
#673=DIRECTION('',(1.,0.,0.));
#674=DIRECTION('',(0.,0.,1.));
#675=DIRECTION('',(1.,0.,0.));
#676=DIRECTION('',(0.,0.,1.));
#677=DIRECTION('',(1.,0.,0.));
#678=DIRECTION('',(0.,0.,1.));
#679=DIRECTION('',(1.,0.,0.));
#680=DIRECTION('',(0.,0.,1.));
#681=DIRECTION('',(1.,0.,0.));
#682=DIRECTION('',(0.,0.,1.));
#683=DIRECTION('',(1.,0.,0.));
#684=DIRECTION('',(0.,0.,1.));
#685=DIRECTION('',(1.,0.,0.));
#686=DIRECTION('',(0.,0.,1.));
#687=DIRECTION('',(1.,0.,0.));
#688=DIRECTION('',(0.,0.,1.));
#689=DIRECTION('',(1.,0.,0.));
#690=DIRECTION('',(0.,0.,-1.));
#691=DIRECTION('',(-1.,0.,0.));
#692=DIRECTION('',(0.,0.,1.));
#693=DIRECTION('',(1.,0.,0.));
#694=DIRECTION('',(0.,0.,1.));
#695=DIRECTION('',(1.,0.,0.));
#696=DIRECTION('',(0.,0.,-1.));
#697=DIRECTION('',(-1.,0.,0.));
#698=DIRECTION('',(0.,0.,1.));
#699=DIRECTION('',(1.,0.,0.));
#700=DIRECTION('',(0.,0.,1.));
#701=DIRECTION('',(1.,0.,0.));
#702=DIRECTION('',(0.,0.,1.));
#703=DIRECTION('',(1.,0.,0.));
#704=DIRECTION('',(0.,0.,-1.));
#705=DIRECTION('',(-1.,0.,0.));
#706=DIRECTION('',(0.,0.,1.));
#707=DIRECTION('',(1.,0.,0.));
#708=DIRECTION('',(0.,0.,1.));
#709=DIRECTION('',(1.,0.,0.));
#710=DIRECTION('',(0.,0.,-1.));
#711=DIRECTION('',(-1.,0.,0.));
#712=DIRECTION('',(0.,0.,1.));
#713=DIRECTION('',(1.,0.,0.));
#714=DIRECTION('',(0.,0.,1.));
#715=DIRECTION('',(1.,0.,0.));
#716=DIRECTION('',(0.,0.,1.));
#717=DIRECTION('',(1.,0.,0.));
#718=DIRECTION('',(0.,0.,-1.));
#719=DIRECTION('',(-1.,0.,0.));
#720=DIRECTION('',(0.,0.,1.));
#721=DIRECTION('',(1.,0.,0.));
#722=DIRECTION('',(0.,0.,1.));
#723=DIRECTION('',(1.,0.,0.));
#724=DIRECTION('',(0.,0.,-1.));
#725=DIRECTION('',(-1.,0.,0.));
#726=DIRECTION('',(0.,0.,1.));
#727=DIRECTION('',(1.,0.,0.));
#728=DIRECTION('',(0.,0.,1.));
#729=DIRECTION('',(1.,0.,0.));
#730=DIRECTION('',(0.,0.,1.));
#731=DIRECTION('',(1.,0.,0.));
#732=DIRECTION('',(0.,0.,-1.));
#733=DIRECTION('',(-1.,0.,0.));
#734=DIRECTION('',(0.,0.,1.));
#735=DIRECTION('',(1.,0.,0.));
#736=DIRECTION('',(0.,0.,1.));
#737=DIRECTION('',(1.,0.,0.));
#738=DIRECTION('',(0.,0.,-1.));
#739=DIRECTION('',(-1.,0.,0.));
#740=DIRECTION('',(0.,0.,1.));
#741=DIRECTION('',(1.,0.,0.));
#742=DIRECTION('',(0.,0.,1.));
#743=DIRECTION('',(1.,0.,0.));
#744=DIRECTION('',(0.,0.,1.));
#745=DIRECTION('',(1.,0.,0.));
#746=DIRECTION('',(-1.,0.,0.));
#747=DIRECTION('',(0.,0.,1.));
#748=DIRECTION('',(0.,1.,0.));
#749=DIRECTION('',(0.,1.,0.));
#750=DIRECTION('',(-1.,0.,0.));
#751=DIRECTION('',(0.,0.,1.));
#752=DIRECTION('',(0.,1.,0.));
#753=DIRECTION('',(0.,1.,0.));
#754=DIRECTION('',(0.,0.,-1.));
#755=DIRECTION('',(-1.,0.,0.));
#756=DIRECTION('',(0.,0.,-1.));
#757=DIRECTION('',(-1.,0.,0.));
#758=DIRECTION('',(0.,0.,-1.));
#759=DIRECTION('',(-1.,0.,0.));
#760=DIRECTION('',(0.,0.,-1.));
#761=DIRECTION('',(-1.,0.,0.));
#762=DIRECTION('',(0.,0.,-1.));
#763=DIRECTION('',(-1.,0.,0.));
#764=DIRECTION('',(0.,0.,-1.));
#765=DIRECTION('',(-1.,0.,0.));
#766=CARTESIAN_POINT('',(0.,0.,0.));
#767=CARTESIAN_POINT('',(0.062486791973584,-0.0056,0.05));
#768=CARTESIAN_POINT('',(0.0642130436666352,-0.0056,0.00811828782949235));
#769=CARTESIAN_POINT('',(0.0706112429088133,-0.0056,0.00811828782949235));
#770=CARTESIAN_POINT('',(0.0578148444244571,-0.0056,0.00811828782949235));
#771=CARTESIAN_POINT('',(0.0706112429088133,-0.0056,0.0118032105859214));
#772=CARTESIAN_POINT('',(0.0706112429088133,-0.0056,0.0154881333423504));
#773=CARTESIAN_POINT('',(0.0642130436666352,-0.0056,0.0154881333423504));
#774=CARTESIAN_POINT('',(0.0578148444244571,-0.0056,0.0154881333423504));
#775=CARTESIAN_POINT('',(0.0578148444244571,-0.0056,0.0118032105859214));
#776=CARTESIAN_POINT('',(0.109273583947168,-0.0056,0.05));
#777=CARTESIAN_POINT('',(0.109273583947168,-0.0056,0.05));
#778=CARTESIAN_POINT('',(0.109273583947168,-0.0056,0.002));
#779=CARTESIAN_POINT('',(0.062486791973584,-0.0056,0.002));
#780=CARTESIAN_POINT('',(0.0157,-0.0056,0.002));
#781=CARTESIAN_POINT('',(0.0157,-0.0056,0.05));
#782=CARTESIAN_POINT('',(0.0157,-0.0056,0.05));
#783=CARTESIAN_POINT('',(0.062486791973584,-0.0056,0.05));
#784=CARTESIAN_POINT('',(0.062486791973584,-0.0076,0.05));
#785=CARTESIAN_POINT('',(0.0642130436666352,-0.0076,0.00811828782949235));
#786=CARTESIAN_POINT('',(0.0706112429088133,-0.0076,0.00811828782949235));
#787=CARTESIAN_POINT('',(0.0578148444244571,-0.0076,0.00811828782949235));
#788=CARTESIAN_POINT('',(0.0578148444244571,-0.0076,0.0118032105859214));
#789=CARTESIAN_POINT('',(0.0578148444244571,-0.0076,0.0154881333423504));
#790=CARTESIAN_POINT('',(0.0642130436666352,-0.0076,0.0154881333423504));
#791=CARTESIAN_POINT('',(0.0706112429088133,-0.0076,0.0154881333423504));
#792=CARTESIAN_POINT('',(0.0706112429088133,-0.0076,0.0118032105859214));
#793=CARTESIAN_POINT('',(0.062486791973584,-0.0076,0.05));
#794=CARTESIAN_POINT('',(0.0187,-0.0076,0.05));
#795=CARTESIAN_POINT('',(0.106273583947168,-0.0076,0.05));
#796=CARTESIAN_POINT('',(0.0187,-0.0076,0.05));
#797=CARTESIAN_POINT('',(0.0187,-0.0076,0.));
#798=CARTESIAN_POINT('',(0.062486791973584,-0.0076,0.));
#799=CARTESIAN_POINT('',(0.106273583947168,-0.0076,0.));
#800=CARTESIAN_POINT('',(0.106273583947168,-0.0076,0.05));
#801=CARTESIAN_POINT('',(0.062486791973584,0.0267088011176025,0.));
#802=CARTESIAN_POINT('',(0.0187,-0.0026,0.));
#803=CARTESIAN_POINT('',(0.0137,-0.0026,0.));
#804=CARTESIAN_POINT('',(0.0137,0.0267088011176025,0.));
#805=CARTESIAN_POINT('',(0.0137,0.056017602235205,0.));
#806=CARTESIAN_POINT('',(0.0187,0.056017602235205,0.));
#807=CARTESIAN_POINT('',(0.0187,0.061017602235205,0.));
#808=CARTESIAN_POINT('',(0.062486791973584,0.061017602235205,0.));
#809=CARTESIAN_POINT('',(0.106273583947168,0.061017602235205,0.));
#810=CARTESIAN_POINT('',(0.106273583947168,0.056017602235205,0.));
#811=CARTESIAN_POINT('',(0.111273583947168,0.056017602235205,0.));
#812=CARTESIAN_POINT('',(0.111273583947168,0.0267088011176025,0.));
#813=CARTESIAN_POINT('',(0.111273583947168,-0.0026,0.));
#814=CARTESIAN_POINT('',(0.106273583947168,-0.0026,0.));
#815=CARTESIAN_POINT('',(0.109273583947168,0.0267088011176025,0.05));
#816=CARTESIAN_POINT('',(0.109273583947168,0.059017602235205,0.05));
#817=CARTESIAN_POINT('',(0.109273583947168,0.059017602235205,0.05));
#818=CARTESIAN_POINT('',(0.109273583947168,0.059017602235205,0.002));
#819=CARTESIAN_POINT('',(0.109273583947168,0.0267088011176025,0.002));
#820=CARTESIAN_POINT('',(0.109273583947168,0.0267088011176025,0.05));
#821=CARTESIAN_POINT('',(0.062486791973584,0.059017602235205,0.05));
#822=CARTESIAN_POINT('',(0.0157,0.059017602235205,0.05));
#823=CARTESIAN_POINT('',(0.0157,0.059017602235205,0.05));
#824=CARTESIAN_POINT('',(0.0157,0.059017602235205,0.002));
#825=CARTESIAN_POINT('',(0.062486791973584,0.059017602235205,0.002));
#826=CARTESIAN_POINT('',(0.062486791973584,0.059017602235205,0.05));
#827=CARTESIAN_POINT('',(0.0157,0.0267088011176025,0.05));
#828=CARTESIAN_POINT('',(0.0157,0.0267088011176025,0.002));
#829=CARTESIAN_POINT('',(0.0157,0.0267088011176025,0.05));
#830=CARTESIAN_POINT('',(0.062486791973584,0.061017602235205,0.05));
#831=CARTESIAN_POINT('',(0.0187,0.061017602235205,0.05));
#832=CARTESIAN_POINT('',(0.0187,0.061017602235205,0.05));
#833=CARTESIAN_POINT('',(0.062486791973584,0.061017602235205,0.05));
#834=CARTESIAN_POINT('',(0.106273583947168,0.061017602235205,0.05));
#835=CARTESIAN_POINT('',(0.106273583947168,0.061017602235205,0.05));
#836=CARTESIAN_POINT('',(0.0137,0.0267088011176025,0.05));
#837=CARTESIAN_POINT('',(0.0137,-0.0026,0.05));
#838=CARTESIAN_POINT('',(0.0137,-0.0026,0.05));
#839=CARTESIAN_POINT('',(0.0137,0.0267088011176025,0.05));
#840=CARTESIAN_POINT('',(0.0137,0.056017602235205,0.05));
#841=CARTESIAN_POINT('',(0.0137,0.056017602235205,0.05));
#842=CARTESIAN_POINT('',(0.111273583947168,0.0267088011176025,0.05));
#843=CARTESIAN_POINT('',(0.111273583947168,0.056017602235205,0.05));
#844=CARTESIAN_POINT('',(0.111273583947168,0.056017602235205,0.05));
#845=CARTESIAN_POINT('',(0.111273583947168,0.0267088011176025,0.05));
#846=CARTESIAN_POINT('',(0.111273583947168,-0.0026,0.05));
#847=CARTESIAN_POINT('',(0.111273583947168,-0.0026,0.05));
#848=CARTESIAN_POINT('',(0.062486791973584,0.0267088011176025,0.05));
#849=CARTESIAN_POINT('',(0.0187,-0.0026,0.05));
#850=CARTESIAN_POINT('',(0.106273583947168,-0.0026,0.05));
#851=CARTESIAN_POINT('',(0.106273583947168,0.056017602235205,0.05));
#852=CARTESIAN_POINT('',(0.0187,0.056017602235205,0.05));
#853=CARTESIAN_POINT('',(0.062486791973584,0.0267088011176025,0.002));
#854=CARTESIAN_POINT('',(0.104206502412998,-0.001294691389383,0.002));
#855=CARTESIAN_POINT('',(0.107206502412998,-0.001294691389383,0.002));
#856=CARTESIAN_POINT('',(0.020894335788672,-0.000151689103377999,0.002));
#857=CARTESIAN_POINT('',(0.023894335788672,-0.000151689103377999,0.002));
#858=CARTESIAN_POINT('',(0.020767335534671,0.053950419100838,0.002));
#859=CARTESIAN_POINT('',(0.023767335534671,0.053950419100838,0.002));
#860=CARTESIAN_POINT('',(0.104079502158998,0.053950419100838,0.002));
#861=CARTESIAN_POINT('',(0.107079502158998,0.053950419100838,0.002));
#862=CARTESIAN_POINT('',(0.104079502158998,0.053950419100838,0.007));
#863=CARTESIAN_POINT('',(0.104079502158998,0.053950419100838,0.007));
#864=CARTESIAN_POINT('',(0.105679502158998,0.053950419100838,0.007));
#865=CARTESIAN_POINT('',(0.104079502158998,0.053950419100838,0.002));
#866=CARTESIAN_POINT('',(0.105679502158998,0.053950419100838,0.002));
#867=CARTESIAN_POINT('',(0.104079502158998,0.053950419100838,0.007));
#868=CARTESIAN_POINT('',(0.104079502158998,0.053950419100838,0.007));
#869=CARTESIAN_POINT('',(0.107079502158998,0.053950419100838,0.007));
#870=CARTESIAN_POINT('',(0.062486791973584,0.0267088011176025,0.007));
#871=CARTESIAN_POINT('',(0.062486791973584,0.0267088011176025,0.002));
#872=CARTESIAN_POINT('',(0.020767335534671,0.053950419100838,0.007));
#873=CARTESIAN_POINT('',(0.020767335534671,0.053950419100838,0.007));
#874=CARTESIAN_POINT('',(0.022367335534671,0.053950419100838,0.007));
#875=CARTESIAN_POINT('',(0.020767335534671,0.053950419100838,0.002));
#876=CARTESIAN_POINT('',(0.022367335534671,0.053950419100838,0.002));
#877=CARTESIAN_POINT('',(0.020767335534671,0.053950419100838,0.007));
#878=CARTESIAN_POINT('',(0.020767335534671,0.053950419100838,0.007));
#879=CARTESIAN_POINT('',(0.023767335534671,0.053950419100838,0.007));
#880=CARTESIAN_POINT('',(0.062486791973584,0.0267088011176025,0.007));
#881=CARTESIAN_POINT('',(0.062486791973584,0.0267088011176025,0.002));
#882=CARTESIAN_POINT('',(0.020894335788672,-0.000151689103377999,0.007));
#883=CARTESIAN_POINT('',(0.020894335788672,-0.000151689103377999,0.007));
#884=CARTESIAN_POINT('',(0.022494335788672,-0.000151689103377999,0.007));
#885=CARTESIAN_POINT('',(0.020894335788672,-0.000151689103377999,0.002));
#886=CARTESIAN_POINT('',(0.022494335788672,-0.000151689103377999,0.002));
#887=CARTESIAN_POINT('',(0.020894335788672,-0.000151689103377999,0.007));
#888=CARTESIAN_POINT('',(0.020894335788672,-0.000151689103377999,0.007));
#889=CARTESIAN_POINT('',(0.023894335788672,-0.000151689103377999,0.007));
#890=CARTESIAN_POINT('',(0.062486791973584,0.0267088011176025,0.007));
#891=CARTESIAN_POINT('',(0.062486791973584,0.0267088011176025,0.002));
#892=CARTESIAN_POINT('',(0.104206502412998,-0.001294691389383,0.007));
#893=CARTESIAN_POINT('',(0.104206502412998,-0.001294691389383,0.007));
#894=CARTESIAN_POINT('',(0.105806502412998,-0.001294691389383,0.007));
#895=CARTESIAN_POINT('',(0.104206502412998,-0.001294691389383,0.002));
#896=CARTESIAN_POINT('',(0.105806502412998,-0.001294691389383,0.002));
#897=CARTESIAN_POINT('',(0.104206502412998,-0.001294691389383,0.007));
#898=CARTESIAN_POINT('',(0.104206502412998,-0.001294691389383,0.007));
#899=CARTESIAN_POINT('',(0.107206502412998,-0.001294691389383,0.007));
#900=CARTESIAN_POINT('',(0.062486791973584,0.0267088011176025,0.007));
#901=CARTESIAN_POINT('',(0.062486791973584,0.0267088011176025,0.002));
#902=CARTESIAN_POINT('',(0.0578148444244571,-0.0306,0.0118032105859214));
#903=CARTESIAN_POINT('',(0.0578148444244571,-0.0306,0.00811828782949235));
#904=CARTESIAN_POINT('',(0.0578148444244571,-0.0306,0.0154881333423504));
#905=CARTESIAN_POINT('',(0.0706112429088133,-0.0306,0.0118032105859214));
#906=CARTESIAN_POINT('',(0.0706112429088133,-0.0306,0.0154881333423504));
#907=CARTESIAN_POINT('',(0.0706112429088133,-0.0306,0.00811828782949235));
#908=CARTESIAN_POINT('',(0.0642130436666352,-0.0306,0.0154881333423504));
#909=CARTESIAN_POINT('',(0.0642130436666352,-0.0306,0.00811828782949235));
#910=CARTESIAN_POINT('',(0.0187,-0.0026,0.05));
#911=CARTESIAN_POINT('',(0.0187,0.056017602235205,0.05));
#912=CARTESIAN_POINT('',(0.106273583947168,0.056017602235205,0.05));
#913=CARTESIAN_POINT('',(0.106273583947168,-0.0026,0.05));
#914=MECHANICAL_DESIGN_GEOMETRIC_PRESENTATION_REPRESENTATION('',(#535),
#915);
#915=(
GEOMETRIC_REPRESENTATION_CONTEXT(3)
GLOBAL_UNCERTAINTY_ASSIGNED_CONTEXT((#916))
GLOBAL_UNIT_ASSIGNED_CONTEXT((#919,#918,#917))
REPRESENTATION_CONTEXT('Part 2','TOP_LEVEL_ASSEMBLY_PART')
);
#916=UNCERTAINTY_MEASURE_WITH_UNIT(LENGTH_MEASURE(1.E-8),#919,
'DISTANCE_ACCURACY_VALUE','Maximum Tolerance applied to model');
#917=(
NAMED_UNIT(*)
SI_UNIT($,.STERADIAN.)
SOLID_ANGLE_UNIT()
);
#918=(
NAMED_UNIT(*)
PLANE_ANGLE_UNIT()
SI_UNIT($,.RADIAN.)
);
#919=(
LENGTH_UNIT()
NAMED_UNIT(*)
SI_UNIT($,.METRE.)
);
#920=PRODUCT_DEFINITION_SHAPE('','',#921);
#921=PRODUCT_DEFINITION('','',#923,#922);
#922=PRODUCT_DEFINITION_CONTEXT('',#929,'design');
#923=PRODUCT_DEFINITION_FORMATION_WITH_SPECIFIED_SOURCE('','',#925,
 .NOT_KNOWN.);
#924=PRODUCT_RELATED_PRODUCT_CATEGORY('','',(#925));
#925=PRODUCT('Part 2','Part 2','Part 2',(#927));
#926=PRODUCT_CATEGORY('','');
#927=PRODUCT_CONTEXT('',#929,'mechanical');
#928=APPLICATION_PROTOCOL_DEFINITION('international standard',
'ap242_managed_model_based_3d_engineering',2020,#929);
#929=APPLICATION_CONTEXT('managed model based 3d engineering');
ENDSEC;
END-ISO-10303-21;
